<?xml version="1.0" encoding="utf-8"?>
<!-- Generator: Adobe Illustrator 22.0.0, SVG Export Plug-In . SVG Version: 6.00 Build 0)  -->
<svg version="1.1" id="Layer_1" xmlns="http://www.w3.org/2000/svg" xmlns:xlink="http://www.w3.org/1999/xlink" x="0px" y="0px"
	 viewBox="0 0 700 700" style="enable-background:new 0 0 700 700;" xml:space="preserve">
<g>
	<path d="M119.7,292.5v189.9h466.7l0-189.9H119.7z M431.4,343.3c0,10.7-6.1,20.1-14.9,24.7c-4.2,1.9-8.4,3.3-13.5,3.3h-99.9
		c-4.7,0-9.3-1.4-13.5-3.3c-8.9-4.7-14.9-14-14.9-24.7v-4.7c0-10.7,6.1-20.1,14.9-24.7c4.2-1.9,8.4-3.3,13.5-3.3h99.9
		c4.7,0,9.3,1.4,13.5,3.3c8.9,4.7,14.9,14,14.9,24.7L431.4,343.3z"/>
	<path d="M415.5,338.7v4.7c0,7-5.6,12.6-12.6,12.6l-99.9,0c-7,0-12.6-5.6-12.6-12.6v-4.7c0-7,5.6-12.6,12.6-12.6h99.9
		C409.9,326.1,415.5,331.7,415.5,338.7L415.5,338.7z"/>
	<path d="M218.6,244.4v32.2l-74.7,0v-32.2c0-20.5-0.9-26.6,19.1-40.1l1.4-0.9c2.3-1.4,3.3-3.7,3.3-6.5l0-65.8h27.1v65.8
		c0,2.8,1.4,5.1,3.3,6.5l1.4,0.9C219.5,217.8,218.6,223.9,218.6,244.4L218.6,244.4z"/>
	<path d="M192.5,111.4h-21.9c-2.3,0-4.2,1.9-4.2,4.2v4.7h29.9v-4.7C196.2,113.3,194.3,111.4,192.5,111.4L192.5,111.4z"/>
	<path d="M332.9,244.4v32.2l-75.1,0v-32.2c0-20.5-0.9-26.6,19.1-40.1l1.4-0.9c2.3-1.4,3.7-3.7,3.7-6.5V131h27.1v65.8
		c0,2.8,1.4,5.1,3.7,6.5l1.4,0.9C333.9,217.8,332.9,223.9,332.9,244.4L332.9,244.4z"/>
	<path d="M306.3,111.4h-21.9c-2.3,0-4.2,1.9-4.2,4.2v4.7h29.9v-4.7C310.1,113.3,308.7,111.4,306.3,111.4L306.3,111.4z"/>
	<path d="M446.8,244.4v32.2l-74.7,0v-32.2c0-20.5-0.9-26.6,19.1-40.1l1.4-0.9c2.3-1.4,3.7-3.7,3.7-6.5V131H423v65.8
		c0,2.8,1.4,5.1,3.7,6.5l1.4,0.9C447.7,217.8,446.8,223.9,446.8,244.4L446.8,244.4z"/>
	<path d="M420.2,111.4h-21.9c-2.3,0-4.2,1.9-4.2,4.2v4.7h29.9v-4.7C424.4,113.3,422.5,111.4,420.2,111.4L420.2,111.4z"/>
	<path d="M561.1,244.9v32.2H486v-32.2c0-20.5-0.9-26.6,19.1-40.1l1.4-0.9c2.3-1.4,3.7-3.7,3.7-6.5v-65.8h27.1v65.8
		c0,2.8,1.4,5.1,3.7,6.5l1.4,0.9C561.6,217.8,561.1,223.9,561.1,244.9L561.1,244.9z"/>
	<path d="M534.5,111.9h-21.9c-2.3,0-4.2,1.9-4.2,4.2v4.7h29.9v-4.7C538.3,113.3,536.4,111.9,534.5,111.9L534.5,111.9z"/>
</g>
</svg>
