<svg xmlns="http://www.w3.org/2000/svg" xmlns:xlink="http://www.w3.org/1999/xlink" viewBox="0,0,256,256" width="100px" height="100px" fill-rule="nonzero"><g fill-opacity="0" fill="#dddddd" fill-rule="nonzero" stroke="none" stroke-width="1" stroke-linecap="butt" stroke-linejoin="miter" stroke-miterlimit="10" stroke-dasharray="" stroke-dashoffset="0" font-family="none" font-weight="none" font-size="none" text-anchor="none" style="mix-blend-mode: normal"><path d="M0,256v-256h256v256z" id="bgRectangle"></path></g><g fill="none" fill-rule="nonzero" stroke="none" stroke-width="1" stroke-linecap="butt" stroke-linejoin="miter" stroke-miterlimit="10" stroke-dasharray="" stroke-dashoffset="0" font-family="none" font-weight="none" font-size="none" text-anchor="none" style="mix-blend-mode: normal"><g transform="scale(5.33333,5.33333)"><path d="M32,10c-7.73199,0 -14,6.26801 -14,14c0,7.73199 6.26801,14 14,14c7.73199,0 14,-6.26801 14,-14c0,-7.73199 -6.26801,-14 -14,-14z" fill="#ff9800"></path><path d="M16,10c-7.73199,0 -14,6.26801 -14,14c0,7.73199 6.26801,14 14,14c7.73199,0 14,-6.26801 14,-14c0,-7.73199 -6.26801,-14 -14,-14z" fill="#d50000"></path><path d="M18,24c0,4.755 2.376,8.95 6,11.48c3.624,-2.53 6,-6.725 6,-11.48c0,-4.755 -2.376,-8.95 -6,-11.48c-3.624,2.53 -6,6.725 -6,11.48z" fill="#ff3d00"></path></g></g></svg>