<svg xmlns="http://www.w3.org/2000/svg" xmlns:xlink="http://www.w3.org/1999/xlink" version="1.1" width="1000" height="1000" viewBox="0 0 1000 1000" xml:space="preserve">
<desc>Created with Fabric.js 3.5.0</desc>
<defs>
</defs>
<rect x="0" y="0" width="100%" height="100%" fill="rgba(255,255,255,0)"/>
<g transform="matrix(1.2987 0 0 1.2987 499.9995 499.9995)" id="750364">
<g style="" vector-effect="non-scaling-stroke">
		<g transform="matrix(1 0 0 1 3.05 37.45)" id="Layer_1">
<path style="stroke: none; stroke-width: 1; stroke-dasharray: none; stroke-linecap: butt; stroke-dashoffset: 0; stroke-linejoin: miter; stroke-miterlimit: 4; is-custom-font: none; font-file-url: none; fill: rgb(255,255,255); fill-rule: nonzero; opacity: 1;" transform=" translate(-353.05, -387.45)" d="M 119.7 292.5 v 189.9 h 466.7 l 0 -189.9 H 119.7 z M 431.4 343.3 c 0 10.7 -6.1 20.1 -14.9 24.7 c -4.2 1.9 -8.4 3.3 -13.5 3.3 h -99.9 c -4.7 0 -9.3 -1.4 -13.5 -3.3 c -8.9 -4.7 -14.9 -14 -14.9 -24.7 v -4.7 c 0 -10.7 6.1 -20.1 14.9 -24.7 c 4.2 -1.9 8.4 -3.3 13.5 -3.3 h 99.9 c 4.7 0 9.3 1.4 13.5 3.3 c 8.9 4.7 14.9 14 14.9 24.7 L 431.4 343.3 z" stroke-linecap="round"/>
</g>
		<g transform="matrix(1 0 0 1 2.95 -8.95)" id="Layer_1">
<path style="stroke: none; stroke-width: 1; stroke-dasharray: none; stroke-linecap: butt; stroke-dashoffset: 0; stroke-linejoin: miter; stroke-miterlimit: 4; is-custom-font: none; font-file-url: none; fill: rgb(255,255,255); fill-rule: nonzero; opacity: 1;" transform=" translate(-352.95, -341.05)" d="M 415.5 338.7 v 4.7 c 0 7 -5.6 12.6 -12.6 12.6 l -99.9 0 c -7 0 -12.6 -5.6 -12.6 -12.6 v -4.7 c 0 -7 5.6 -12.6 12.6 -12.6 h 99.9 C 409.9 326.1 415.5 331.7 415.5 338.7 L 415.5 338.7 z" stroke-linecap="round"/>
</g>
		<g transform="matrix(1 0 0 1 -168.75 -146.15)" id="Layer_1">
<path style="stroke: none; stroke-width: 1; stroke-dasharray: none; stroke-linecap: butt; stroke-dashoffset: 0; stroke-linejoin: miter; stroke-miterlimit: 4; is-custom-font: none; font-file-url: none; fill: rgb(255,255,255); fill-rule: nonzero; opacity: 1;" transform=" translate(-181.25, -203.85)" d="M 218.6 244.4 v 32.2 l -74.7 0 v -32.2 c 0 -20.5 -0.9 -26.6 19.1 -40.1 l 1.4 -0.9 c 2.3 -1.4 3.3 -3.7 3.3 -6.5 l 0 -65.8 h 27.1 v 65.8 c 0 2.8 1.4 5.1 3.3 6.5 l 1.4 0.9 C 219.5 217.8 218.6 223.9 218.6 244.4 L 218.6 244.4 z" stroke-linecap="round"/>
</g>
		<g transform="matrix(1 0 0 1 -168.65 -234.15)" id="Layer_1">
<path style="stroke: none; stroke-width: 1; stroke-dasharray: none; stroke-linecap: butt; stroke-dashoffset: 0; stroke-linejoin: miter; stroke-miterlimit: 4; is-custom-font: none; font-file-url: none; fill: rgb(255,255,255); fill-rule: nonzero; opacity: 1;" transform=" translate(-181.35, -115.85)" d="M 192.5 111.4 h -21.9 c -2.3 0 -4.2 1.9 -4.2 4.2 v 4.7 h 29.9 v -4.7 C 196.2 113.3 194.3 111.4 192.5 111.4 L 192.5 111.4 z" stroke-linecap="round"/>
</g>
		<g transform="matrix(1 0 0 1 -54.6488 -146.2)" id="Layer_1">
<path style="stroke: none; stroke-width: 1; stroke-dasharray: none; stroke-linecap: butt; stroke-dashoffset: 0; stroke-linejoin: miter; stroke-miterlimit: 4; is-custom-font: none; font-file-url: none; fill: rgb(255,255,255); fill-rule: nonzero; opacity: 1;" transform=" translate(-295.3512, -203.8)" d="M 332.9 244.4 v 32.2 l -75.1 0 v -32.2 c 0 -20.5 -0.9 -26.6 19.1 -40.1 l 1.4 -0.9 c 2.3 -1.4 3.7 -3.7 3.7 -6.5 V 131 h 27.1 v 65.8 c 0 2.8 1.4 5.1 3.7 6.5 l 1.4 0.9 C 333.9 217.8 332.9 223.9 332.9 244.4 L 332.9 244.4 z" stroke-linecap="round"/>
</g>
		<g transform="matrix(1 0 0 1 -54.85 -234.15)" id="Layer_1">
<path style="stroke: none; stroke-width: 1; stroke-dasharray: none; stroke-linecap: butt; stroke-dashoffset: 0; stroke-linejoin: miter; stroke-miterlimit: 4; is-custom-font: none; font-file-url: none; fill: rgb(255,255,255); fill-rule: nonzero; opacity: 1;" transform=" translate(-295.15, -115.85)" d="M 306.3 111.4 h -21.9 c -2.3 0 -4.2 1.9 -4.2 4.2 v 4.7 h 29.9 v -4.7 C 310.1 113.3 308.7 111.4 306.3 111.4 L 306.3 111.4 z" stroke-linecap="round"/>
</g>
		<g transform="matrix(1 0 0 1 59.4502 -146.2)" id="Layer_1">
<path style="stroke: none; stroke-width: 1; stroke-dasharray: none; stroke-linecap: butt; stroke-dashoffset: 0; stroke-linejoin: miter; stroke-miterlimit: 4; is-custom-font: none; font-file-url: none; fill: rgb(255,255,255); fill-rule: nonzero; opacity: 1;" transform=" translate(-409.4501, -203.8)" d="M 446.8 244.4 v 32.2 l -74.7 0 v -32.2 c 0 -20.5 -0.9 -26.6 19.1 -40.1 l 1.4 -0.9 c 2.3 -1.4 3.7 -3.7 3.7 -6.5 V 131 H 423 v 65.8 c 0 2.8 1.4 5.1 3.7 6.5 l 1.4 0.9 C 447.7 217.8 446.8 223.9 446.8 244.4 L 446.8 244.4 z" stroke-linecap="round"/>
</g>
		<g transform="matrix(1 0 0 1 59.0767 -234.15)" id="Layer_1">
<path style="stroke: none; stroke-width: 1; stroke-dasharray: none; stroke-linecap: butt; stroke-dashoffset: 0; stroke-linejoin: miter; stroke-miterlimit: 4; is-custom-font: none; font-file-url: none; fill: rgb(255,255,255); fill-rule: nonzero; opacity: 1;" transform=" translate(-409.0767, -115.85)" d="M 420.2 111.4 h -21.9 c -2.3 0 -4.2 1.9 -4.2 4.2 v 4.7 h 29.9 v -4.7 C 424.4 113.3 422.5 111.4 420.2 111.4 L 420.2 111.4 z" stroke-linecap="round"/>
</g>
		<g transform="matrix(1 0 0 1 173.5476 -145.65)" id="Layer_1">
<path style="stroke: none; stroke-width: 1; stroke-dasharray: none; stroke-linecap: butt; stroke-dashoffset: 0; stroke-linejoin: miter; stroke-miterlimit: 4; is-custom-font: none; font-file-url: none; fill: rgb(255,255,255); fill-rule: nonzero; opacity: 1;" transform=" translate(-523.5475, -204.35)" d="M 561.1 244.9 v 32.2 H 486 v -32.2 c 0 -20.5 -0.9 -26.6 19.1 -40.1 l 1.4 -0.9 c 2.3 -1.4 3.7 -3.7 3.7 -6.5 v -65.8 h 27.1 v 65.8 c 0 2.8 1.4 5.1 3.7 6.5 l 1.4 0.9 C 561.6 217.8 561.1 223.9 561.1 244.9 L 561.1 244.9 z" stroke-linecap="round"/>
</g>
		<g transform="matrix(1 0 0 1 173.35 -233.65)" id="Layer_1">
<path style="stroke: none; stroke-width: 1; stroke-dasharray: none; stroke-linecap: butt; stroke-dashoffset: 0; stroke-linejoin: miter; stroke-miterlimit: 4; is-custom-font: none; font-file-url: none; fill: rgb(255,255,255); fill-rule: nonzero; opacity: 1;" transform=" translate(-523.35, -116.35)" d="M 534.5 111.9 h -21.9 c -2.3 0 -4.2 1.9 -4.2 4.2 v 4.7 h 29.9 v -4.7 C 538.3 113.3 536.4 111.9 534.5 111.9 L 534.5 111.9 z" stroke-linecap="round"/>
</g>
</g>
</g>
</svg>