<svg xmlns="http://www.w3.org/2000/svg" version="1.1" xmlns:xlink="http://www.w3.org/1999/xlink" xmlns:svgjs="http://svgjs.dev/svgjs" width="2000" height="1603" viewBox="0 0 2000 1603"><g transform="matrix(1,0,0,1,0.13368670092177126,0.6489878542510041)"><svg viewBox="0 0 308 247" data-background-color="#ffffff" preserveAspectRatio="xMidYMid meet" height="1603" width="2000" xmlns="http://www.w3.org/2000/svg" xmlns:xlink="http://www.w3.org/1999/xlink"><g id="tight-bounds" transform="matrix(1,0,0,1,-0.020587716941719236,-0.09999999999999432)"><svg viewBox="0 0 308.0411629598004 247.2" height="247.2" width="308.0411629598004"><g><svg viewBox="0 0 395.52 317.40090532238185" height="247.2" width="308.0411629598004"><g transform="matrix(1,0,0,1,0,253.1018146997085)"><svg viewBox="0 0 395.52 64.29909062267335" height="64.29909062267335" width="395.52"><g><svg viewBox="0 0 395.52 64.29909062267335" height="64.29909062267335" width="395.52"><g><svg viewBox="0 0 395.52 34.67985704074339" height="34.67985704074339" width="395.52"><g transform="matrix(1,0,0,1,0,0)"><svg width="395.52" viewBox="1.2000000476837158 -36.099998474121094 419.66998291015625 36.79999923706055" height="34.67985704074339" data-palette-color="#4d331f"><path d="M33-35.4L33-35.4 33-34.4Q31.35-34.3 30.5-33.8 29.65-33.3 29.35-32.18 29.05-31.05 29.05-29L29.05-29 29.05-14.55Q29.05-11.15 28.6-8.5 28.15-5.85 27-3.95L27-3.95Q25.75-1.85 23.33-0.58 20.9 0.7 17.55 0.7L17.55 0.7Q15.15 0.7 12.9 0.15 10.65-0.4 8.95-1.95L8.95-1.95Q7.45-3.3 6.6-4.9 5.75-6.5 5.45-8.78 5.15-11.05 5.15-14.4L5.15-14.4 5.15-30.1Q5.15-31.95 4.88-32.83 4.6-33.7 3.75-34.02 2.9-34.35 1.2-34.4L1.2-34.4 1.2-35.4Q2.35-35.35 4.17-35.3 6-35.25 8.1-35.25L8.1-35.25Q10-35.25 11.88-35.3 13.75-35.35 14.95-35.4L14.95-35.4 14.95-34.4Q13.25-34.35 12.38-34.02 11.5-33.7 11.2-32.83 10.9-31.95 10.9-30.1L10.9-30.1 10.9-12.8Q10.9-9.4 11.45-6.75 12-4.1 13.63-2.58 15.25-1.05 18.5-1.05L18.5-1.05Q22.2-1.05 24.23-2.73 26.25-4.4 27.08-7.33 27.9-10.25 27.9-14L27.9-14 27.9-28.8Q27.9-30.95 27.5-32.1 27.1-33.25 26.1-33.77 25.1-34.3 23.25-34.4L23.25-34.4 23.25-35.4Q24.2-35.35 25.7-35.3 27.2-35.25 28.45-35.25L28.45-35.25Q29.75-35.25 30.98-35.3 32.2-35.35 33-35.4ZM68.1-35.4L68.1-35.4 68.1-34.4Q66.4-34.3 65.55-33.8 64.7-33.3 64.42-32.18 64.15-31.05 64.15-29L64.15-29 64.15 0.2Q63.75 0.2 63.35 0.2 62.95 0.2 62.5 0.2L62.5 0.2 41.3-30.6 41.3-6.6Q41.3-4.5 41.6-3.33 41.9-2.15 42.9-1.65 43.9-1.15 45.95-1L45.95-1 45.95 0Q45-0.1 43.52-0.13 42.05-0.15 40.75-0.15L40.75-0.15Q39.5-0.15 38.25-0.13 37-0.1 36.2 0L36.2 0 36.2-1Q37.85-1.15 38.7-1.63 39.55-2.1 39.85-3.25 40.15-4.4 40.15-6.4L40.15-6.4 40.15-30.1Q40.15-31.95 39.85-32.83 39.55-33.7 38.7-34.02 37.85-34.35 36.2-34.4L36.2-34.4 36.2-35.4Q37-35.35 38.25-35.3 39.5-35.25 40.75-35.25L40.75-35.25Q41.85-35.25 42.9-35.3 43.95-35.35 44.75-35.4L44.75-35.4 63-9.3 63-28.8Q63-30.95 62.67-32.1 62.35-33.25 61.35-33.77 60.35-34.3 58.35-34.4L58.35-34.4 58.35-35.4Q59.25-35.35 60.75-35.3 62.25-35.25 63.55-35.25L63.55-35.25Q64.8-35.25 66.05-35.3 67.3-35.35 68.1-35.4ZM85.34-35.4L85.34-35.4 85.34-34.4Q83.7-34.35 82.84-34.02 82-33.7 81.7-32.83 81.4-31.95 81.4-30.1L81.4-30.1 81.4-5.3Q81.4-3.5 81.7-2.6 82-1.7 82.84-1.4 83.7-1.1 85.34-1L85.34-1 85.34 0Q84.15-0.1 82.32-0.13 80.5-0.15 78.59-0.15L78.59-0.15Q76.5-0.15 74.67-0.13 72.84-0.1 71.7 0L71.7 0 71.7-1Q73.4-1.1 74.25-1.4 75.09-1.7 75.37-2.6 75.65-3.5 75.65-5.3L75.65-5.3 75.65-30.1Q75.65-31.95 75.37-32.83 75.09-33.7 74.22-34.02 73.34-34.35 71.7-34.4L71.7-34.4 71.7-35.4Q72.84-35.35 74.67-35.3 76.5-35.25 78.59-35.25L78.59-35.25Q80.5-35.25 82.32-35.3 84.15-35.35 85.34-35.4ZM105.89-36.1L105.89-36.1Q110.79-36.1 114.52-33.95 118.24-31.8 120.29-27.78 122.34-23.75 122.34-18L122.34-18Q122.34-12.4 120.24-8.2 118.14-4 114.39-1.65 110.64 0.7 105.84 0.7L105.84 0.7Q100.89 0.7 97.19-1.45 93.49-3.6 91.44-7.65 89.39-11.7 89.39-17.4L89.39-17.4Q89.39-23 91.52-27.2 93.64-31.4 97.34-33.75 101.04-36.1 105.89-36.1ZM105.69-35.2L105.69-35.2Q102.59-35.2 100.29-32.95 97.99-30.7 96.74-26.75 95.49-22.8 95.49-17.6L95.49-17.6Q95.49-12.3 96.89-8.38 98.29-4.45 100.69-2.33 103.09-0.2 106.04-0.2L106.04-0.2Q109.14-0.2 111.42-2.45 113.69-4.7 114.97-8.68 116.24-12.65 116.24-17.8L116.24-17.8Q116.24-23.15 114.82-27.05 113.39-30.95 111.02-33.08 108.64-35.2 105.69-35.2ZM158.29-35.4L158.29-35.4 158.29-34.4Q156.59-34.3 155.74-33.8 154.89-33.3 154.61-32.18 154.34-31.05 154.34-29L154.34-29 154.34 0.2Q153.94 0.2 153.54 0.2 153.14 0.2 152.69 0.2L152.69 0.2 131.49-30.6 131.49-6.6Q131.49-4.5 131.79-3.33 132.09-2.15 133.09-1.65 134.09-1.15 136.14-1L136.14-1 136.14 0Q135.19-0.1 133.71-0.13 132.24-0.15 130.94-0.15L130.94-0.15Q129.69-0.15 128.44-0.13 127.19-0.1 126.39 0L126.39 0 126.39-1Q128.04-1.15 128.89-1.63 129.74-2.1 130.04-3.25 130.34-4.4 130.34-6.4L130.34-6.4 130.34-30.1Q130.34-31.95 130.04-32.83 129.74-33.7 128.89-34.02 128.04-34.35 126.39-34.4L126.39-34.4 126.39-35.4Q127.19-35.35 128.44-35.3 129.69-35.25 130.94-35.25L130.94-35.25Q132.04-35.25 133.09-35.3 134.14-35.35 134.94-35.4L134.94-35.4 153.19-9.3 153.19-28.8Q153.19-30.95 152.86-32.1 152.54-33.25 151.54-33.77 150.54-34.3 148.54-34.4L148.54-34.4 148.54-35.4Q149.44-35.35 150.94-35.3 152.44-35.25 153.74-35.25L153.74-35.25Q154.99-35.25 156.24-35.3 157.49-35.35 158.29-35.4ZM187.83-35.4L187.83-35.4 187.83-34.4Q186.13-34.35 185.26-34.02 184.38-33.7 184.08-32.83 183.78-31.95 183.78-30.1L183.78-30.1 183.78-5.1Q183.78-3.4 184.06-2.55 184.33-1.7 185.16-1.43 185.98-1.15 187.53-1.15L187.53-1.15 190.78-1.15Q193.69-1.15 195.38-2.23 197.08-3.3 197.98-5.5 198.88-7.7 199.28-11.1L199.28-11.1 200.44-11.1Q200.28-9.5 200.28-6.9L200.28-6.9Q200.28-5.9 200.36-3.98 200.44-2.05 200.63 0L200.63 0Q198.08-0.1 194.88-0.13 191.69-0.15 189.19-0.15L189.19-0.15Q187.63-0.15 185.06-0.15 182.48-0.15 179.56-0.13 176.63-0.1 174.08 0L174.08 0 174.08-1Q175.78-1.1 176.63-1.4 177.48-1.7 177.76-2.6 178.03-3.5 178.03-5.3L178.03-5.3 178.03-30.1Q178.03-31.95 177.76-32.83 177.48-33.7 176.61-34.02 175.73-34.35 174.08-34.4L174.08-34.4 174.08-35.4Q175.23-35.35 177.06-35.3 178.88-35.25 180.98-35.25L180.98-35.25Q182.88-35.25 184.76-35.3 186.63-35.35 187.83-35.4ZM217.53-35.4L217.53-35.4 217.53-34.4Q215.88-34.35 215.03-34.02 214.18-33.7 213.88-32.83 213.58-31.95 213.58-30.1L213.58-30.1 213.58-5.3Q213.58-3.5 213.88-2.6 214.18-1.7 215.03-1.4 215.88-1.1 217.53-1L217.53-1 217.53 0Q216.33-0.1 214.51-0.13 212.68-0.15 210.78-0.15L210.78-0.15Q208.68-0.15 206.86-0.13 205.03-0.1 203.88 0L203.88 0 203.88-1Q205.58-1.1 206.43-1.4 207.28-1.7 207.56-2.6 207.83-3.5 207.83-5.3L207.83-5.3 207.83-30.1Q207.83-31.95 207.56-32.83 207.28-33.7 206.41-34.02 205.53-34.35 203.88-34.4L203.88-34.4 203.88-35.4Q205.03-35.35 206.86-35.3 208.68-35.25 210.78-35.25L210.78-35.25Q212.68-35.25 214.51-35.3 216.33-35.35 217.53-35.4ZM238.08-36.1L238.08-36.1Q241.38-36.1 243.51-35.13 245.63-34.15 247.28-32.85L247.28-32.85Q248.28-32.1 248.81-32.68 249.33-33.25 249.53-35.4L249.53-35.4 250.68-35.4Q250.58-33.5 250.53-30.83 250.48-28.15 250.48-23.7L250.48-23.7 249.33-23.7Q248.98-25.9 248.66-27.3 248.33-28.7 247.81-29.7 247.28-30.7 246.38-31.65L246.38-31.65Q244.93-33.45 242.83-34.25 240.73-35.05 238.38-35.05L238.38-35.05Q235.83-35.05 233.88-33.77 231.93-32.5 230.61-30.15 229.28-27.8 228.58-24.6 227.88-21.4 227.88-17.6L227.88-17.6Q227.88-13.7 228.63-10.53 229.38-7.35 230.81-5.08 232.23-2.8 234.26-1.58 236.28-0.35 238.78-0.35L238.78-0.35Q240.83-0.35 243.03-1.18 245.23-2 246.53-3.7L246.53-3.7Q247.93-5.2 248.46-7.08 248.98-8.95 249.33-12.2L249.33-12.2 250.48-12.2Q250.48-7.6 250.53-4.78 250.58-1.95 250.68 0L250.68 0 249.53 0Q249.33-2.15 248.86-2.7 248.38-3.25 247.28-2.55L247.28-2.55Q245.43-1.25 243.36-0.28 241.28 0.7 238.03 0.7L238.03 0.7Q233.08 0.7 229.38-1.45 225.68-3.6 223.63-7.65 221.58-11.7 221.58-17.4L221.58-17.4Q221.58-23 223.71-27.2 225.83-31.4 229.53-33.75 233.23-36.1 238.08-36.1ZM272.78-36.1L272.78-36.1Q277.68-36.1 281.4-33.95 285.13-31.8 287.18-27.78 289.23-23.75 289.23-18L289.23-18Q289.23-12.4 287.13-8.2 285.03-4 281.28-1.65 277.53 0.7 272.73 0.7L272.73 0.7Q267.78 0.7 264.08-1.45 260.38-3.6 258.33-7.65 256.28-11.7 256.28-17.4L256.28-17.4Q256.28-23 258.4-27.2 260.53-31.4 264.23-33.75 267.93-36.1 272.78-36.1ZM272.58-35.2L272.58-35.2Q269.48-35.2 267.18-32.95 264.88-30.7 263.63-26.75 262.38-22.8 262.38-17.6L262.38-17.6Q262.38-12.3 263.78-8.38 265.18-4.45 267.58-2.33 269.98-0.2 272.93-0.2L272.93-0.2Q276.03-0.2 278.3-2.45 280.58-4.7 281.85-8.68 283.13-12.65 283.13-17.8L283.13-17.8Q283.13-23.15 281.7-27.05 280.28-30.95 277.9-33.08 275.53-35.2 272.58-35.2ZM293.23-34.4L293.23-35.4Q294.38-35.35 296.2-35.3 298.03-35.25 299.83-35.25L299.83-35.25Q302.23-35.25 304.4-35.3 306.58-35.35 307.48-35.35L307.48-35.35Q313.83-35.35 316.98-32.93 320.13-30.5 320.13-26.65L320.13-26.65Q320.13-25.1 319.5-23.38 318.88-21.65 317.33-20.18 315.78-18.7 313.13-17.75 310.48-16.8 306.38-16.8L306.38-16.8 301.58-16.8 301.58-17.8 305.88-17.8Q309.23-17.8 311-18.93 312.78-20.05 313.4-21.93 314.03-23.8 314.03-26.1L314.03-26.1Q314.03-30.05 312.33-32.23 310.63-34.4 306.43-34.4L306.43-34.4Q304.28-34.4 303.6-33.55 302.93-32.7 302.93-30.1L302.93-30.1 302.93-5.3Q302.93-3.5 303.23-2.6 303.53-1.7 304.38-1.4 305.23-1.1 306.88-1L306.88-1 306.88 0Q305.68-0.1 303.85-0.13 302.03-0.15 300.13-0.15L300.13-0.15Q298.03-0.15 296.2-0.13 294.38-0.1 293.23 0L293.23 0 293.23-1Q294.93-1.1 295.78-1.4 296.63-1.7 296.9-2.6 297.18-3.5 297.18-5.3L297.18-5.3 297.18-30.1Q297.18-31.95 296.9-32.83 296.63-33.7 295.75-34.02 294.88-34.35 293.23-34.4L293.23-34.4ZM301.78-16.8L301.68-17.65Q304.23-17.55 305.78-17.43 307.33-17.3 308.38-17.2 309.43-17.1 310.33-16.95L310.33-16.95Q314.08-16.45 315.8-14.95 317.53-13.45 318.18-10.35L318.18-10.35 319.43-5.25Q319.88-3.1 320.4-2.2 320.93-1.3 321.98-1.3L321.98-1.3Q322.78-1.35 323.3-1.78 323.83-2.2 324.43-2.95L324.43-2.95 325.13-2.4Q323.98-0.85 322.73-0.08 321.48 0.7 319.38 0.7L319.38 0.7Q317.23 0.7 315.7-0.43 314.18-1.55 313.53-4.7L313.53-4.7 312.53-9.7Q312.08-11.85 311.53-13.43 310.98-15 310-15.9 309.03-16.8 307.18-16.8L307.18-16.8 301.78-16.8ZM351.92-35.4L351.92-35.4Q351.72-33.5 351.65-31.73 351.57-29.95 351.57-29L351.57-29Q351.57-28.05 351.62-27.2 351.67-26.35 351.72-25.8L351.72-25.8 350.57-25.8Q350.22-29 349.5-30.85 348.77-32.7 347.35-33.48 345.92-34.25 343.37-34.25L343.37-34.25 339.92-34.25Q338.32-34.25 337.5-33.98 336.67-33.7 336.37-32.88 336.07-32.05 336.07-30.3L336.07-30.3 336.07-5.1Q336.07-3.4 336.37-2.55 336.67-1.7 337.5-1.43 338.32-1.15 339.92-1.15L339.92-1.15 343.17-1.15Q346.02-1.15 347.7-2.05 349.37-2.95 350.25-5 351.12-7.05 351.57-10.6L351.57-10.6 352.72-10.6Q352.57-9.15 352.57-6.8L352.57-6.8Q352.57-5.8 352.65-3.9 352.72-2 352.92 0L352.92 0Q350.37-0.1 347.17-0.13 343.97-0.15 341.47-0.15L341.47-0.15Q339.92-0.15 337.35-0.15 334.77-0.15 331.85-0.13 328.92-0.1 326.37 0L326.37 0 326.37-1Q328.07-1.1 328.92-1.4 329.77-1.7 330.05-2.6 330.32-3.5 330.32-5.3L330.32-5.3 330.32-30.1Q330.32-31.95 330.05-32.83 329.77-33.7 328.9-34.02 328.02-34.35 326.37-34.4L326.37-34.4 326.37-35.4Q328.92-35.35 331.85-35.3 334.77-35.25 337.35-35.25 339.92-35.25 341.47-35.25L341.47-35.25Q343.77-35.25 346.7-35.27 349.62-35.3 351.92-35.4ZM334.57-18.3L343.62-18.3Q343.62-18.3 343.62-17.8 343.62-17.3 343.62-17.3L343.62-17.3 334.57-17.3Q334.57-17.3 334.57-17.8 334.57-18.3 334.57-18.3L334.57-18.3ZM343.92-24.9L345.07-24.9Q344.87-22.05 344.9-20.55 344.92-19.05 344.92-17.8L344.92-17.8Q344.92-16.55 344.97-15.05 345.02-13.55 345.22-10.7L345.22-10.7 344.07-10.7Q343.82-12.35 343.42-13.88 343.02-15.4 342-16.35 340.97-17.3 338.82-17.3L338.82-17.3 338.82-18.3Q340.97-18.3 341.95-19.43 342.92-20.55 343.3-22.1 343.67-23.65 343.92-24.9L343.92-24.9ZM357.22-34.4L357.22-35.4Q358.37-35.35 360.2-35.3 362.02-35.25 363.82-35.25L363.82-35.25Q366.22-35.25 368.4-35.3 370.57-35.35 371.47-35.35L371.47-35.35Q377.82-35.35 380.97-32.93 384.12-30.5 384.12-26.65L384.12-26.65Q384.12-25.1 383.5-23.38 382.87-21.65 381.32-20.18 379.77-18.7 377.12-17.75 374.47-16.8 370.37-16.8L370.37-16.8 365.57-16.8 365.57-17.8 369.87-17.8Q373.22-17.8 375-18.93 376.77-20.05 377.4-21.93 378.02-23.8 378.02-26.1L378.02-26.1Q378.02-30.05 376.32-32.23 374.62-34.4 370.42-34.4L370.42-34.4Q368.27-34.4 367.6-33.55 366.92-32.7 366.92-30.1L366.92-30.1 366.92-5.3Q366.92-3.5 367.22-2.6 367.52-1.7 368.37-1.4 369.22-1.1 370.87-1L370.87-1 370.87 0Q369.67-0.1 367.85-0.13 366.02-0.15 364.12-0.15L364.12-0.15Q362.02-0.15 360.2-0.13 358.37-0.1 357.22 0L357.22 0 357.22-1Q358.92-1.1 359.77-1.4 360.62-1.7 360.9-2.6 361.17-3.5 361.17-5.3L361.17-5.3 361.17-30.1Q361.17-31.95 360.9-32.83 360.62-33.7 359.75-34.02 358.87-34.35 357.22-34.4L357.22-34.4ZM365.77-16.8L365.67-17.65Q368.22-17.55 369.77-17.43 371.32-17.3 372.37-17.2 373.42-17.1 374.32-16.95L374.32-16.95Q378.07-16.45 379.8-14.95 381.52-13.45 382.17-10.35L382.17-10.35 383.42-5.25Q383.87-3.1 384.4-2.2 384.92-1.3 385.97-1.3L385.97-1.3Q386.77-1.35 387.3-1.78 387.82-2.2 388.42-2.95L388.42-2.95 389.12-2.4Q387.97-0.85 386.72-0.08 385.47 0.7 383.37 0.7L383.37 0.7Q381.22 0.7 379.7-0.43 378.17-1.55 377.52-4.7L377.52-4.7 376.52-9.7Q376.07-11.85 375.52-13.43 374.97-15 374-15.9 373.02-16.8 371.17-16.8L371.17-16.8 365.77-16.8ZM405.32-35.6L405.32-35.6 417.52-4.2Q418.22-2.35 419.14-1.7 420.07-1.05 420.87-1L420.87-1 420.87 0Q419.67-0.1 418.04-0.13 416.42-0.15 414.77-0.15L414.77-0.15Q412.67-0.15 410.87-0.13 409.07-0.1 407.97 0L407.97 0 407.97-1Q410.52-1.1 411.19-1.88 411.87-2.65 410.87-5.2L410.87-5.2 401.87-29.5 402.67-30.4 394.37-8.7Q393.17-5.7 393.22-4.05 393.27-2.4 394.39-1.73 395.52-1.05 397.62-1L397.62-1 397.62 0Q396.12-0.1 394.59-0.13 393.07-0.15 391.72-0.15L391.72-0.15Q390.52-0.15 389.59-0.13 388.67-0.1 387.92 0L387.92 0 387.92-1Q388.97-1.25 390.02-2.25 391.07-3.25 392.02-5.65L392.02-5.65 403.62-35.6Q404.02-35.6 404.47-35.6 404.92-35.6 405.32-35.6ZM396.17-14.4L410.57-14.4 410.57-13.4 395.67-13.4 396.17-14.4Z" opacity="1" transform="matrix(1,0,0,1,0,0)" fill="#4d331f" class="undefined-text-0" data-fill-palette-color="primary" id="text-0"></path></svg></g></svg></g><g transform="matrix(1,0,0,1,141.36704378586293,42.86693897149393)"><svg viewBox="0 0 112.7859124282741 21.432151651179417" height="21.432151651179417" width="112.7859124282741"><g transform="matrix(1,0,0,1,0,0)"><svg width="112.7859124282741" viewBox="4 -33.70000076293945 179.42999267578125 34.10000228881836" height="21.432151651179417" data-palette-color="#4d331f"><path d="M22.25-2.85L22.25 0 4 0 4-33.7 21.95-33.7 21.95-30.85 7.1-30.85 7.1-18.25 20.2-18.25 20.2-15.4 7.1-15.4 7.1-2.85 22.25-2.85ZM43.05-6.5L43.05-6.5Q43.05-3.35 40.87-1.53 38.7 0.3 34.9 0.3L34.9 0.3Q30.3 0.3 27.5-1.2L27.5-1.2 27.5-4.35Q30.85-2.45 34.7-2.45L34.7-2.45Q37.25-2.45 38.57-3.5 39.9-4.55 39.9-6.25L39.9-6.25Q39.9-8.25 38.52-9.35 37.15-10.45 34-11.7L34-11.7Q30.95-12.9 29.15-14.5 27.35-16.1 27.35-18.9L27.35-18.9Q27.35-21.95 29.6-23.78 31.85-25.6 35.25-25.6L35.25-25.6Q39.35-25.6 41.55-24.45L41.55-24.45 41.55-21.4Q39.2-22.75 35.2-22.75L35.2-22.75Q33-22.75 31.72-21.73 30.45-20.7 30.45-19.05L30.45-19.05Q30.45-18.05 30.82-17.3 31.2-16.55 32.12-15.93 33.05-15.3 33.7-15 34.35-14.7 35.8-14.1L35.8-14.1Q39.3-12.7 41.17-11.03 43.05-9.35 43.05-6.5ZM60.75-3.8L60.75-0.7Q59.3 0.25 57.4 0.25L57.4 0.25Q50.2 0.25 50.2-7.15L50.2-7.15 50.2-22.75 46.05-22.75 46.05-25.35 50.2-25.35 50.2-31.7 53.3-31.7 53.3-25.35 60.55-25.35 60.55-22.75 53.3-22.75 53.3-7Q53.3-2.65 57.34-2.65L57.34-2.65Q59.34-2.65 60.75-3.8L60.75-3.8ZM68.37-3.98Q69.09-3.25 69.09-2.15 69.09-1.05 68.37-0.33 67.64 0.4 66.54 0.4 65.44 0.4 64.72-0.33 63.99-1.05 63.99-2.15 63.99-3.25 64.72-3.98 65.44-4.7 66.54-4.7 67.64-4.7 68.37-3.98ZM104.54-2.75L104.54 0 84.19 0 84.19-2.75Q100.19-15 100.19-23.15L100.19-23.15Q100.19-26.55 98.26-28.33 96.34-30.1 93.09-30.1L93.09-30.1Q89.34-30.1 85.39-27.2L85.39-27.2 85.39-30.3Q88.79-33 93.19-33L93.19-33Q97.39-33 100.39-30.48 103.39-27.95 103.39-23.3L103.39-23.3Q103.39-14.6 88.54-2.75L88.54-2.75 104.54-2.75ZM131.69-16.45L131.69-16.45Q131.69-8.85 128.69-4.23 125.69 0.4 120.23 0.4L120.23 0.4Q115.23 0.4 112.13-4.23 109.03-8.85 109.03-16.45 109.03-24.05 112.19-28.53 115.33-33 120.23-33L120.23-33Q125.33-33 128.51-28.55 131.69-24.1 131.69-16.45ZM112.19-16.45L112.19-16.45Q112.19-9.95 114.53-6.28 116.88-2.6 120.23-2.6L120.23-2.6Q123.98-2.6 126.26-6.2 128.53-9.8 128.53-16.45L128.53-16.45Q128.53-23 126.16-26.5 123.78-30 120.23-30L120.23-30Q117.03-30 114.61-26.45 112.19-22.9 112.19-16.45ZM156.28-2.75L156.28 0 135.93 0 135.93-2.75Q151.93-15 151.93-23.15L151.93-23.15Q151.93-26.55 150.01-28.33 148.08-30.1 144.83-30.1L144.83-30.1Q141.08-30.1 137.13-27.2L137.13-27.2 137.13-30.3Q140.53-33 144.93-33L144.93-33Q149.13-33 152.13-30.48 155.13-27.95 155.13-23.3L155.13-23.3Q155.13-14.6 140.28-2.75L140.28-2.75 156.28-2.75ZM183.43-16.45L183.43-16.45Q183.43-8.85 180.43-4.23 177.43 0.4 171.98 0.4L171.98 0.4Q166.98 0.4 163.88-4.23 160.78-8.85 160.78-16.45 160.78-24.05 163.93-28.53 167.08-33 171.98-33L171.98-33Q177.08-33 180.25-28.55 183.43-24.1 183.43-16.45ZM163.93-16.45L163.93-16.45Q163.93-9.95 166.28-6.28 168.63-2.6 171.98-2.6L171.98-2.6Q175.73-2.6 178-6.2 180.28-9.8 180.28-16.45L180.28-16.45Q180.28-23 177.91-26.5 175.53-30 171.98-30L171.98-30Q168.78-30 166.35-26.45 163.93-22.9 163.93-16.45Z" opacity="1" transform="matrix(1,0,0,1,0,0)" fill="#4d331f" class="undefined-text-1" data-fill-palette-color="secondary" id="text-1"></path></svg></g></svg></g></svg></g></svg></g><g transform="matrix(1,0,0,1,75.54432,0)"><svg viewBox="0 0 244.43135999999998 232.63410987283217" height="232.63410987283217" width="244.43135999999998"><g><svg viewBox="0 0 244.43135999999998 232.63410987283217" height="232.63410987283217" width="244.43135999999998"><g transform="matrix(1,0,0,1,67.38329445787465,61.484669394290755)"><svg viewBox="0 0 109.66477108425066 109.66477108425066" height="109.66477108425066" width="109.66477108425066"><g><svg xmlns="http://www.w3.org/2000/svg" xmlns:xlink="http://www.w3.org/1999/xlink" version="1.1" x="0" y="0" viewBox="1 1 70 70" enable-background="new 0 0 72 72" xml:space="preserve" height="109.66477108425066" width="109.66477108425066" class="icon-a-0" data-fill-palette-color="accent" id="a-0"><g fill="#4d331f" data-fill-palette-color="accent"><path fill="#4d331f" d="M49.3 64.3l-10.4-1.4c-0.3 0-0.6-0.4-0.6-0.7V37.9c0-0.4 0.2-0.7 0.6-0.7l10.4-1.4c0.4-0.1 0.7 0.3 0.7 0.7v27.1C50 64 49.7 64.4 49.3 64.3z" data-fill-palette-color="accent"></path><path fill="#4d331f" d="M70.9 25.9l-13.5-12c-0.1-0.1-0.1-0.1-0.1-0.2V4c0-0.1 0-0.2-0.1-0.2l-3.3-2.7C53.8 1 53.7 1 53.6 1L9.8 21c-0.1 0-0.2 0.2-0.2 0.3v6c0 0.1-0.1 0.3-0.2 0.3L7.9 28c-0.1 0-0.2 0.2-0.2 0.3V33c0 0.2 0.2 0.4 0.4 0.3l45.1-15.9c0.2-0.1 0.4 0.1 0.4 0.3l0.2 48.5c0 0.2-0.1 0.3-0.2 0.3l-17 1.8v0L1.3 57.7C1.2 57.7 1 57.8 1 58v2c0 0.1 0.1 0.3 0.2 0.3L36.4 71l0 0L69 67.6c0.1 0 0.2-0.1 0.2-0.3v-2.4V31.7c0-0.2 0.1-0.3 0.3-0.3h1.2c0.2 0 0.3-0.1 0.3-0.3v-5C71 26 71 25.9 70.9 25.9z" data-fill-palette-color="accent"></path><path fill="#4d331f" d="M36.4 27.9L36.4 27.9 36.4 27.9c-0.1-0.4-0.3-0.8-0.6-1-0.7-0.5-1.6-0.3-2.1 0.4l-7.7 12.4c0 0.1-0.1 0.1-0.2 0.1l-18.6 2c-0.2 0-0.4-0.3-0.2-0.5l3-4.3c0.5-0.7 0.4-1.8-0.2-2.3-0.6-0.6-1.6-0.5-2.1 0.3l-5.6 7.8c-0.4 0.5-0.4 1.2-0.1 1.8 0.3 0.5 0.8 0.9 1.3 0.9 0 0 0.1 0 0.1 0l7.7-0.8c0.3 0 0.5 0.2 0.5 0.5v11.3c0 0.5 0.3 1 0.8 1l22.9 4.5c0.5 0.1 1-0.4 1-1V28.6C36.5 28.4 36.5 28.1 36.4 27.9z" data-fill-palette-color="accent"></path></g></svg></g></svg></g><path d="M13.751 70.98V70.98L14.25 71.155C14.093 71.705 14.046 72.15 14.11 72.489 14.177 72.822 14.378 73.104 14.713 73.334 15.05 73.557 15.554 73.786 16.226 74.021V74.021L23.33 76.506C24.447 76.896 25.415 77.319 26.234 77.775 27.05 78.222 27.704 78.746 28.198 79.348V79.348C28.739 79.995 29.08 80.791 29.222 81.734 29.366 82.672 29.245 83.693 28.859 84.797V84.797C28.584 85.581 28.227 86.311 27.786 86.988 27.347 87.658 26.776 88.184 26.073 88.565V88.565C25.454 88.904 24.836 89.121 24.219 89.215 23.595 89.307 22.893 89.272 22.111 89.112 21.33 88.951 20.39 88.679 19.292 88.295V88.295L11.566 85.593C10.964 85.382 10.503 85.271 10.184 85.257 9.862 85.251 9.6 85.367 9.397 85.605 9.194 85.844 8.988 86.24 8.78 86.794V86.794L8.282 86.62C8.432 86.25 8.621 85.77 8.848 85.181 9.071 84.583 9.303 83.942 9.542 83.259V83.259C9.761 82.631 9.972 82.008 10.174 81.389 10.371 80.767 10.528 80.256 10.648 79.854V79.854L11.147 80.028C10.964 80.591 10.875 81.035 10.881 81.361 10.887 81.687 11.018 81.948 11.273 82.143 11.527 82.344 11.955 82.55 12.557 82.76V82.76L21.073 85.739C22.19 86.129 23.213 86.385 24.142 86.506 25.075 86.635 25.883 86.52 26.565 86.16 27.254 85.802 27.784 85.09 28.157 84.024V84.024C28.583 82.806 28.638 81.773 28.323 80.924 28.003 80.065 27.411 79.334 26.545 78.728 25.682 78.117 24.635 77.596 23.406 77.166V77.166L16.122 74.619C15.42 74.373 14.857 74.25 14.435 74.25 14.012 74.25 13.655 74.386 13.363 74.657 13.08 74.924 12.816 75.356 12.572 75.954V75.954L12.073 75.779C12.201 75.472 12.362 75.074 12.554 74.585 12.737 74.1 12.901 73.654 13.043 73.246V73.246C13.192 72.819 13.331 72.403 13.459 71.997 13.58 71.589 13.678 71.25 13.751 70.98ZM26.283 48.968V48.968L26.734 49.243C26.455 49.766 26.314 50.197 26.309 50.536 26.301 50.882 26.44 51.196 26.727 51.479 27.014 51.763 27.461 52.089 28.068 52.459V52.459L41.063 60.369C40.99 60.488 40.917 60.608 40.845 60.727 40.772 60.846 40.695 60.974 40.612 61.11V61.11L21.158 62.2 31.845 68.705C32.47 69.085 32.983 69.335 33.384 69.455 33.792 69.578 34.159 69.538 34.486 69.332 34.813 69.127 35.185 68.734 35.6 68.154V68.154L36.043 68.424C35.845 68.685 35.606 69.033 35.325 69.469 35.053 69.903 34.8 70.313 34.565 70.699V70.699C34.34 71.068 34.118 71.438 33.899 71.811 33.683 72.193 33.518 72.508 33.404 72.758V72.758L32.961 72.489C33.213 71.973 33.344 71.547 33.354 71.211 33.368 70.869 33.23 70.552 32.942 70.259 32.656 69.961 32.215 69.631 31.619 69.268V69.268L21.069 62.845C20.524 62.514 20.093 62.314 19.777 62.245 19.464 62.172 19.181 62.233 18.929 62.43 18.681 62.621 18.402 62.957 18.093 63.438V63.438L17.642 63.164C17.801 62.941 18.003 62.648 18.248 62.284 18.484 61.921 18.714 61.556 18.939 61.187V61.187C19.139 60.858 19.329 60.533 19.508 60.214 19.681 59.892 19.831 59.606 19.959 59.357V59.357L36.528 58.309 27.842 53.022C27.206 52.635 26.689 52.386 26.289 52.275 25.89 52.164 25.519 52.211 25.177 52.415 24.844 52.617 24.482 53.007 24.091 53.586V53.586L23.64 53.311C23.822 53.049 24.057 52.702 24.344 52.269 24.625 51.833 24.883 51.423 25.118 51.036V51.036C25.346 50.662 25.566 50.287 25.78 49.911 25.987 49.531 26.155 49.217 26.283 48.968ZM36.255 36.959V36.959L36.653 37.307C36.282 37.751 36.043 38.12 35.935 38.414 35.823 38.714 35.849 39.002 36.014 39.278 36.174 39.559 36.494 39.91 36.974 40.33V40.33L46.702 48.847C47.172 49.259 47.56 49.528 47.865 49.653 48.165 49.784 48.454 49.772 48.731 49.617 48.999 49.463 49.338 49.181 49.749 48.772V48.772L50.139 49.114C49.838 49.407 49.473 49.789 49.042 50.26 48.622 50.731 48.194 51.214 47.761 51.709V51.709C47.279 52.259 46.831 52.776 46.416 53.261 46.01 53.745 45.688 54.147 45.45 54.469V54.469L45.06 54.128C45.42 53.657 45.659 53.278 45.776 52.992 45.893 52.697 45.865 52.412 45.691 52.136 45.517 51.86 45.196 51.517 44.725 51.105V51.105L34.997 42.588C34.517 42.168 34.131 41.892 33.84 41.761 33.549 41.629 33.26 41.641 32.973 41.797 32.687 41.953 32.351 42.241 31.964 42.662V42.662L31.567 42.314C31.844 42.027 32.199 41.653 32.629 41.191 33.06 40.72 33.516 40.209 33.997 39.659V39.659C34.431 39.164 34.85 38.675 35.256 38.191 35.661 37.698 35.994 37.287 36.255 36.959ZM49.083 25.267V25.267C50.408 24.201 51.809 23.552 53.286 23.319 54.766 23.092 56.221 23.3 57.65 23.942 59.079 24.584 60.42 25.684 61.674 27.243V27.243C62.894 28.76 63.676 30.315 64.018 31.907 64.37 33.501 64.295 35.024 63.792 36.477 63.289 37.931 62.388 39.18 61.088 40.226V40.226C59.747 41.305 58.339 41.955 56.863 42.178 55.397 42.402 53.946 42.188 52.508 41.536 51.071 40.884 49.732 39.786 48.491 38.243V38.243C47.274 36.73 46.496 35.173 46.154 33.572 45.813 31.97 45.887 30.451 46.379 29.016 46.871 27.571 47.772 26.321 49.083 25.267ZM49.299 25.695V25.695C48.46 26.37 47.973 27.26 47.839 28.366 47.704 29.481 47.899 30.71 48.425 32.052 48.946 33.39 49.773 34.763 50.906 36.172V36.172C52.06 37.606 53.253 38.702 54.485 39.46 55.717 40.218 56.888 40.623 57.997 40.678 59.116 40.733 60.075 40.44 60.872 39.798V39.798C61.711 39.123 62.193 38.233 62.318 37.126 62.443 36.019 62.245 34.788 61.726 33.431 61.205 32.084 60.383 30.712 59.258 29.314V29.314C58.096 27.869 56.899 26.772 55.666 26.024 54.428 25.28 53.256 24.879 52.152 24.82 51.047 24.762 50.096 25.053 49.299 25.695ZM78.948 8.121V8.121L79.179 8.596C78.662 8.885 78.31 9.171 78.123 9.455 77.93 9.741 77.878 10.081 77.966 10.474 78.054 10.868 78.254 11.384 78.566 12.023V12.023L85.235 25.696C85.109 25.757 84.984 25.818 84.859 25.88 84.733 25.941 84.599 26.006 84.455 26.076V26.076L67.492 16.493 72.976 27.738C73.297 28.395 73.593 28.882 73.867 29.2 74.143 29.524 74.474 29.687 74.861 29.691 75.247 29.695 75.771 29.565 76.434 29.301V29.301L76.661 29.767C76.354 29.88 75.964 30.044 75.493 30.259 75.03 30.477 74.595 30.686 74.189 30.884V30.884C73.801 31.073 73.414 31.266 73.028 31.461 72.64 31.665 72.331 31.842 72.1 31.991V31.991L71.873 31.525C72.364 31.227 72.704 30.939 72.894 30.661 73.09 30.381 73.145 30.04 73.06 29.638 72.981 29.233 72.788 28.717 72.482 28.089V28.089L67.068 16.988C66.788 16.414 66.533 16.013 66.304 15.785 66.08 15.554 65.809 15.453 65.491 15.483 65.178 15.51 64.762 15.642 64.243 15.881V15.881L64.011 15.406C64.265 15.304 64.593 15.167 64.996 14.992 65.39 14.815 65.782 14.631 66.17 14.442V14.442C66.516 14.273 66.851 14.102 67.174 13.93 67.493 13.752 67.774 13.593 68.016 13.453V13.453L82.53 21.514 78.072 12.375C77.746 11.706 77.444 11.217 77.168 10.908 76.892 10.599 76.555 10.438 76.156 10.425 75.767 10.415 75.252 10.549 74.61 10.825V10.825L74.378 10.35C74.674 10.228 75.059 10.062 75.533 9.853 76.005 9.638 76.444 9.431 76.85 9.233V9.233C77.245 9.041 77.633 8.844 78.015 8.642 78.395 8.435 78.706 8.261 78.948 8.121ZM106.239 1.271V1.271L106.316 1.794C105.733 1.893 105.298 2.021 105.012 2.178 104.726 2.334 104.556 2.571 104.503 2.888 104.442 3.206 104.458 3.681 104.552 4.312V4.312L106.458 17.201C106.544 17.786 106.655 18.22 106.791 18.502 106.932 18.777 107.152 18.943 107.449 19 107.745 19.05 108.16 19.036 108.692 18.957V18.957L110.369 18.709C111.368 18.561 112.13 18.26 112.654 17.807 113.184 17.345 113.547 16.714 113.744 15.912 113.942 15.11 114.023 14.117 113.989 12.933V12.933L114.581 12.846C114.616 13.398 114.699 14.122 114.831 15.016V15.016C114.883 15.364 114.97 15.865 115.094 16.519 115.212 17.18 115.359 17.857 115.535 18.55V18.55C114.656 18.646 113.663 18.769 112.557 18.92 111.458 19.075 110.478 19.217 109.616 19.344V19.344C109.084 19.423 108.377 19.527 107.496 19.658 106.608 19.789 105.662 19.932 104.657 20.088 103.653 20.249 102.717 20.411 101.847 20.574V20.574L101.771 20.061C102.35 19.935 102.777 19.801 103.052 19.66 103.332 19.511 103.496 19.275 103.542 18.952 103.588 18.63 103.566 18.16 103.475 17.542V17.542L101.583 4.751C101.49 4.12 101.375 3.66 101.238 3.371 101.101 3.082 100.874 2.904 100.555 2.837 100.236 2.77 99.793 2.772 99.225 2.842V2.842L99.148 2.319C99.545 2.281 100.058 2.225 100.685 2.153 101.318 2.072 101.996 1.979 102.72 1.872V1.872C103.371 1.776 104.017 1.673 104.66 1.565 105.301 1.45 105.827 1.352 106.239 1.271ZM128.089 0.074V0.074L128.083 0.602C127.505 0.61 127.069 0.668 126.775 0.778 126.475 0.888 126.274 1.095 126.171 1.4 126.061 1.704 126.003 2.176 125.997 2.814V2.814L125.862 15.743C125.856 16.368 125.904 16.837 126.007 17.15 126.104 17.464 126.301 17.675 126.599 17.784 126.89 17.887 127.325 17.961 127.902 18.007V18.007L127.897 18.526C127.479 18.488 126.951 18.459 126.313 18.439 125.681 18.426 125.037 18.416 124.379 18.409V18.409C123.648 18.402 122.963 18.398 122.325 18.398 121.694 18.405 121.179 18.423 120.779 18.452V18.452L120.785 17.933C121.377 17.9 121.819 17.834 122.113 17.738 122.413 17.635 122.611 17.427 122.707 17.116 122.804 16.804 122.855 16.336 122.862 15.712V15.712L122.996 2.783C123.003 2.145 122.961 1.672 122.871 1.366 122.781 1.059 122.584 0.848 122.28 0.731 121.975 0.615 121.537 0.548 120.966 0.528V0.528L120.971 0C121.37 0.024 121.885 0.049 122.516 0.076 123.153 0.096 123.838 0.11 124.569 0.117V0.117C125.227 0.124 125.872 0.124 126.503 0.117 127.141 0.104 127.67 0.09 128.089 0.074ZM145.215 2.086V2.086C146.347 2.287 147.247 2.618 147.915 3.08 148.582 3.542 149.158 4.046 149.642 4.59V4.59C149.937 4.905 150.194 4.981 150.412 4.817 150.623 4.652 150.83 4.206 151.033 3.479V3.479L151.622 3.584C151.474 4.232 151.309 5.013 151.127 5.926 150.953 6.833 150.731 8.049 150.462 9.574V9.574L149.863 9.468C149.878 8.695 149.872 8.059 149.846 7.562 149.819 7.064 149.748 6.627 149.632 6.249 149.509 5.876 149.323 5.499 149.073 5.117V5.117C148.685 4.414 148.157 3.865 147.491 3.471 146.82 3.069 146.082 2.796 145.277 2.654V2.654C144.406 2.5 143.599 2.58 142.855 2.894 142.11 3.215 141.438 3.737 140.837 4.461 140.243 5.186 139.732 6.074 139.303 7.125 138.868 8.175 138.535 9.352 138.305 10.654V10.654C138.069 11.989 137.982 13.222 138.045 14.354 138.108 15.486 138.317 16.484 138.67 17.35 139.016 18.214 139.499 18.917 140.119 19.459 140.739 20 141.477 20.347 142.335 20.498V20.498C143.035 20.622 143.786 20.61 144.589 20.461 145.392 20.306 146.067 19.98 146.614 19.483V19.483C147.183 19.051 147.616 18.53 147.913 17.921 148.203 17.311 148.505 16.46 148.82 15.368V15.368L149.419 15.474C149.14 17.051 148.922 18.322 148.765 19.286 148.613 20.258 148.495 21.081 148.409 21.754V21.754L147.82 21.65C147.878 20.905 147.845 20.423 147.721 20.205 147.591 19.987 147.315 19.965 146.893 20.14V20.14C146.186 20.474 145.446 20.745 144.674 20.952 143.908 21.161 142.969 21.167 141.856 20.97V20.97C140.161 20.671 138.744 20.039 137.605 19.075 136.472 18.119 135.678 16.885 135.223 15.373 134.768 13.862 134.713 12.131 135.057 10.181V10.181C135.395 8.27 136.055 6.659 137.036 5.348 138.017 4.036 139.209 3.093 140.614 2.518 142.026 1.937 143.56 1.794 145.215 2.086ZM169.323 9.682V9.682C170.892 10.34 172.13 11.263 173.037 12.451 173.941 13.645 174.451 15.023 174.567 16.585 174.682 18.148 174.353 19.851 173.579 21.695V21.695C172.825 23.491 171.829 24.918 170.592 25.977 169.358 27.045 167.982 27.704 166.465 27.954 164.948 28.203 163.42 28.005 161.882 27.36V27.36C160.294 26.693 159.052 25.765 158.153 24.573 157.259 23.39 156.756 22.012 156.646 20.437 156.536 18.863 156.864 17.163 157.63 15.336V15.336C158.381 13.547 159.38 12.121 160.626 11.058 161.872 9.996 163.243 9.339 164.74 9.088 166.245 8.833 167.773 9.031 169.323 9.682ZM169.05 10.075V10.075C168.057 9.658 167.043 9.654 166.006 10.062 164.961 10.474 163.973 11.231 163.043 12.332 162.115 13.427 161.301 14.809 160.601 16.475V16.475C159.888 18.173 159.492 19.744 159.412 21.188 159.332 22.632 159.533 23.855 160.013 24.856 160.497 25.867 161.211 26.57 162.155 26.966V26.966C163.148 27.383 164.16 27.383 165.193 26.966 166.226 26.549 167.215 25.789 168.161 24.687 169.098 23.588 169.913 22.211 170.608 20.557V20.557C171.325 18.847 171.72 17.272 171.791 15.831 171.856 14.388 171.652 13.167 171.177 12.168 170.703 11.169 169.994 10.471 169.05 10.075ZM184.77 18.529L185.077 18.1C185.39 18.348 185.797 18.664 186.299 19.047 186.81 19.429 187.32 19.802 187.828 20.166V20.166C188.504 20.649 189.154 21.106 189.778 21.536 190.405 21.96 190.846 22.264 191.1 22.445V22.445C192.895 23.729 193.993 25.033 194.393 26.358 194.789 27.678 194.598 28.882 193.82 29.968V29.968C193.507 30.406 193.09 30.807 192.569 31.169 192.043 31.528 191.412 31.759 190.676 31.862 189.941 31.965 189.1 31.883 188.156 31.616 187.216 31.352 186.166 30.805 185.004 29.973V29.973L182.969 28.518 183.276 28.088 185.1 29.393C186.046 30.07 186.883 30.431 187.61 30.477 188.34 30.518 188.985 30.337 189.542 29.935 190.094 29.529 190.602 29.002 191.066 28.353V28.353C191.866 27.234 192.246 26.195 192.206 25.234 192.167 24.283 191.554 23.382 190.364 22.532V22.532C189.759 22.099 189.274 21.931 188.909 22.03 188.546 22.138 188.103 22.557 187.581 23.286V23.286L180.058 33.802C179.695 34.31 179.465 34.722 179.37 35.038 179.269 35.35 179.31 35.636 179.491 35.897 179.671 36.148 179.984 36.458 180.431 36.827V36.827L180.13 37.249C179.809 36.978 179.392 36.652 178.881 36.27 178.372 35.897 177.849 35.519 177.314 35.136V35.136C176.72 34.711 176.161 34.315 175.638 33.949 175.117 33.593 174.684 33.312 174.341 33.107V33.107L174.642 32.686C175.147 32.997 175.547 33.198 175.843 33.287 176.148 33.374 176.429 33.318 176.686 33.118 176.944 32.918 177.254 32.564 177.618 32.056V32.056L185.141 21.54C185.512 21.021 185.749 20.611 185.851 20.308 185.953 20.005 185.913 19.719 185.73 19.449 185.547 19.179 185.227 18.873 184.77 18.529ZM183.058 28.581L183.278 28.187C183.974 28.734 184.529 29.18 184.944 29.526 185.354 29.877 185.699 30.172 185.977 30.412 186.255 30.652 186.505 30.884 186.728 31.109V31.109C187.687 32.008 188.259 32.842 188.444 33.611 188.625 34.386 188.494 35.278 188.051 36.285V36.285L187.038 38.832C186.729 39.527 186.559 40.055 186.529 40.417 186.493 40.776 186.624 41.061 186.921 41.274V41.274C187.16 41.42 187.395 41.486 187.626 41.471 187.862 41.461 188.14 41.41 188.458 41.319V41.319L188.59 41.769C187.947 41.971 187.372 42.054 186.866 42.019 186.356 41.989 185.804 41.762 185.21 41.336V41.336C184.604 40.903 184.199 40.373 183.995 39.744 183.791 39.116 183.916 38.29 184.37 37.267V37.267L185.462 34.849C185.766 34.151 186.002 33.523 186.172 32.967 186.332 32.411 186.365 31.908 186.272 31.457 186.178 31.005 185.869 30.592 185.344 30.217V30.217ZM213.249 42.553V42.553C212.716 42.957 212.216 43.361 211.748 43.766 211.286 44.167 210.934 44.482 210.692 44.71V44.71C210.451 44.938 210.231 45.16 210.032 45.376 209.833 45.591 209.668 45.77 209.538 45.912V45.912L209.127 45.477C209.851 44.628 210.36 43.89 210.655 43.263 210.945 42.642 211.018 42.056 210.874 41.506 210.729 40.967 210.353 40.375 209.746 39.733V39.733L208.506 38.422C208.127 38.021 207.805 37.749 207.541 37.605 207.273 37.457 207 37.444 206.724 37.568 206.439 37.692 206.076 37.962 205.637 38.377V38.377L196.097 47.398C195.668 47.804 195.381 48.149 195.236 48.432 195.092 48.705 195.085 48.982 195.213 49.263 195.342 49.535 195.596 49.871 195.975 50.272V50.272L197.139 51.503C197.82 52.223 198.474 52.688 199.103 52.898 199.727 53.103 200.403 53.073 201.129 52.806 201.861 52.535 202.726 52.033 203.724 51.299V51.299L204.135 51.734C203.736 52.047 203.24 52.485 202.646 53.046V53.046C202.395 53.284 202.039 53.638 201.58 54.109 201.115 54.576 200.655 55.076 200.198 55.608V55.608C199.615 54.943 198.944 54.2 198.187 53.38 197.429 52.569 196.751 51.847 196.153 51.215V51.215C195.783 50.823 195.292 50.304 194.68 49.657 194.064 49.005 193.404 48.312 192.7 47.578 191.992 46.848 191.322 46.174 190.691 45.554V45.554L191.067 45.198C191.503 45.601 191.857 45.874 192.13 46.018 192.413 46.162 192.7 46.161 192.991 46.014 193.282 45.867 193.654 45.578 194.108 45.149V45.149L203.503 36.265C203.966 35.827 204.277 35.469 204.435 35.191 204.594 34.914 204.609 34.625 204.481 34.325 204.353 34.025 204.097 33.663 203.714 33.239V33.239L204.098 32.876C204.691 33.532 205.329 34.236 206.014 34.989 206.703 35.737 207.355 36.437 207.972 37.088 208.584 37.736 209.075 38.255 209.444 38.646V38.646C209.997 39.23 210.623 39.887 211.322 40.616 212.025 41.351 212.668 41.996 213.249 42.553ZM200.561 42.107L203.801 45.533C203.801 45.533 203.738 45.592 203.612 45.711 203.482 45.834 203.417 45.896 203.417 45.896V45.896L200.177 42.47C200.177 42.47 200.242 42.408 200.373 42.285 200.498 42.166 200.561 42.107 200.561 42.107ZM206.403 43.279L206.82 43.72C206.051 44.348 205.477 44.844 205.1 45.21 204.733 45.575 204.392 45.907 204.078 46.204V46.204C203.76 46.505 203.416 46.839 203.049 47.204 202.681 47.58 202.16 48.132 201.486 48.86V48.86L201.075 48.426C201.436 47.966 201.759 47.505 202.045 47.042 202.335 46.576 202.48 46.1 202.48 45.616 202.47 45.131 202.209 44.619 201.698 44.078V44.078L202.082 43.715C202.593 44.256 203.105 44.517 203.618 44.498 204.136 44.475 204.636 44.327 205.119 44.054 205.596 43.775 206.024 43.517 206.403 43.279ZM218.659 50.661L219.11 50.385C219.301 50.735 219.554 51.185 219.867 51.733 220.189 52.284 220.514 52.825 220.841 53.358V53.358C221.275 54.066 221.696 54.739 222.104 55.378 222.517 56.013 222.806 56.464 222.969 56.73V56.73C224.123 58.611 224.628 60.239 224.482 61.615 224.333 62.986 223.689 64.02 222.55 64.719V64.719C222.091 65.001 221.552 65.207 220.931 65.339 220.306 65.465 219.635 65.432 218.917 65.241 218.199 65.05 217.457 64.648 216.691 64.034 215.928 63.426 215.173 62.514 214.425 61.296V61.296L213.116 59.163 213.567 58.887 214.74 60.799C215.348 61.79 215.978 62.448 216.63 62.773 217.288 63.095 217.951 63.179 218.621 63.025 219.288 62.865 219.961 62.577 220.64 62.16V62.16C221.813 61.44 222.567 60.63 222.904 59.73 223.238 58.839 223.022 57.77 222.257 56.524V56.524C221.868 55.889 221.486 55.547 221.112 55.496 220.735 55.454 220.165 55.668 219.4 56.137V56.137L208.38 62.901C207.848 63.227 207.476 63.518 207.266 63.772 207.052 64.02 206.977 64.3 207.043 64.61 207.111 64.911 207.28 65.319 207.548 65.833V65.833L207.106 66.104C206.915 65.73 206.659 65.267 206.336 64.716 206.012 64.175 205.677 63.624 205.333 63.063V63.063C204.951 62.44 204.59 61.858 204.251 61.318 203.909 60.787 203.62 60.36 203.383 60.037V60.037L203.825 59.766C204.168 60.25 204.459 60.59 204.697 60.787 204.944 60.986 205.225 61.044 205.54 60.96 205.854 60.875 206.278 60.67 206.811 60.343V60.343L217.83 53.58C218.374 53.246 218.752 52.959 218.964 52.72 219.176 52.481 219.25 52.201 219.186 51.882 219.122 51.562 218.947 51.155 218.659 50.661ZM213.174 59.257L213.53 58.98C213.958 59.754 214.296 60.381 214.544 60.86 214.786 61.343 214.988 61.749 215.151 62.078 215.314 62.407 215.455 62.719 215.573 63.013V63.013C216.107 64.213 216.309 65.204 216.18 65.985 216.046 66.77 215.579 67.54 214.779 68.295V68.295L212.855 70.249C212.301 70.768 211.939 71.189 211.77 71.511 211.598 71.827 211.607 72.141 211.798 72.453V72.453C211.961 72.68 212.152 72.832 212.371 72.909 212.593 72.991 212.868 73.052 213.197 73.092V73.092L213.143 73.557C212.472 73.494 211.911 73.347 211.458 73.118 211 72.892 210.58 72.468 210.197 71.845V71.845C209.808 71.21 209.641 70.564 209.697 69.906 209.753 69.248 210.189 68.535 211.006 67.769V67.769L212.952 65.966C213.503 65.441 213.965 64.955 214.338 64.508 214.701 64.058 214.928 63.607 215.017 63.155 215.106 62.703 214.981 62.202 214.644 61.653V61.653ZM233.649 78.865V78.865L220.381 90.355C219.857 90.804 219.542 91.216 219.436 91.593 219.333 91.975 219.318 92.298 219.391 92.562V92.562L218.902 92.736C218.795 92.337 218.653 91.869 218.475 91.332 218.292 90.798 218.104 90.262 217.912 89.724V89.724C217.666 89.035 217.435 88.398 217.218 87.812 216.996 87.228 216.804 86.76 216.643 86.408V86.408L217.131 86.234C217.466 87.053 217.799 87.53 218.13 87.666 218.465 87.794 218.99 87.546 219.706 86.923V86.923L230.051 78.244 230.633 78.481 218.532 78.208C217.408 78.164 216.581 78.248 216.049 78.459 215.511 78.672 215.197 78.999 215.108 79.44 215.021 79.888 215.091 80.459 215.318 81.155V81.155L214.83 81.329C214.687 80.829 214.532 80.327 214.366 79.822 214.193 79.319 214.029 78.848 213.872 78.41V78.41C213.731 78.016 213.603 77.667 213.487 77.362 213.368 77.066 213.248 76.802 213.13 76.569V76.569L213.618 76.395C213.823 76.71 214.152 76.98 214.607 77.206 215.055 77.434 215.725 77.562 216.617 77.589V77.589L233.354 78.038C233.401 78.17 233.45 78.308 233.502 78.452 233.555 78.602 233.605 78.739 233.649 78.865ZM221.644 78.091L224.169 85.161 223.68 85.335 221.069 78.021ZM36.135 158.982V158.982L35.636 159.157C35.414 158.622 35.171 158.243 34.909 158.018 34.641 157.795 34.301 157.699 33.889 157.731 33.484 157.761 32.94 157.895 32.256 158.135V158.135L25.051 160.664C23.922 161.06 22.892 161.337 21.961 161.494 21.024 161.654 20.172 161.654 19.404 161.494V161.494C18.563 161.324 17.787 160.909 17.077 160.25 16.375 159.595 15.828 158.709 15.436 157.593V157.593C15.157 156.796 14.977 155.993 14.897 155.183 14.817 154.373 14.934 153.592 15.248 152.841V152.841C15.526 152.187 15.882 151.626 16.316 151.157 16.75 150.687 17.325 150.27 18.043 149.906 18.766 149.539 19.683 149.161 20.793 148.772V148.772L28.619 146.025C29.24 145.808 29.678 145.601 29.934 145.406 30.191 145.217 30.327 144.961 30.341 144.639 30.349 144.32 30.26 143.876 30.074 143.307V143.307L30.573 143.132C30.694 143.519 30.852 144.017 31.044 144.625 31.239 145.24 31.458 145.896 31.702 146.592V146.592C31.925 147.225 32.154 147.849 32.391 148.463 32.63 149.084 32.825 149.589 32.976 149.98V149.98L32.477 150.155C32.267 149.595 32.058 149.189 31.85 148.938 31.636 148.689 31.367 148.565 31.043 148.566 30.719 148.567 30.247 148.677 29.626 148.894V148.894L21 151.921C19.871 152.318 18.9 152.761 18.086 153.251 17.265 153.743 16.696 154.348 16.377 155.065 16.065 155.781 16.099 156.681 16.48 157.766V157.766C16.911 158.995 17.52 159.848 18.308 160.325 19.101 160.8 20.032 161.005 21.101 160.94 22.17 160.875 23.329 160.623 24.577 160.186V160.186L31.961 157.594C32.676 157.343 33.198 157.086 33.528 156.822 33.862 156.55 34.059 156.217 34.118 155.823 34.177 155.429 34.114 154.919 33.93 154.294V154.294L34.428 154.119C34.528 154.443 34.655 154.856 34.81 155.358 34.968 155.866 35.119 156.328 35.264 156.741V156.741C35.416 157.174 35.573 157.591 35.735 157.992 35.897 158.393 36.03 158.723 36.135 158.982ZM46.601 176.503V176.503L46.151 176.778C45.811 176.285 45.489 175.956 45.186 175.79 44.877 175.629 44.526 175.609 44.134 175.732 43.75 175.857 43.25 176.108 42.631 176.485V176.485L29.459 184.526C29.383 184.401 29.309 184.279 29.236 184.16 29.163 184.041 29.085 183.913 29.002 183.777V183.777L37.059 165.731 26.236 172.338C25.606 172.722 25.14 173.069 24.838 173.378 24.542 173.683 24.409 174.033 24.44 174.427 24.476 174.818 24.66 175.336 24.992 175.982V175.982L24.541 176.257C24.392 175.951 24.189 175.573 23.93 175.123 23.666 174.677 23.414 174.259 23.175 173.867V173.867C22.947 173.493 22.715 173.12 22.481 172.749 22.238 172.376 22.029 172.079 21.855 171.858V171.858L22.306 171.583C22.653 172.049 22.977 172.369 23.278 172.543 23.576 172.712 23.923 172.733 24.321 172.607 24.723 172.487 25.224 172.243 25.825 171.876V171.876L36.513 165.352C37.074 165.009 37.458 164.713 37.663 164.463 37.872 164.218 37.95 163.937 37.896 163.62 37.834 163.3 37.657 162.89 37.367 162.389V162.389L37.818 162.114C37.952 162.359 38.127 162.677 38.342 163.067 38.553 163.452 38.773 163.832 39.002 164.206V164.206C39.203 164.535 39.409 164.853 39.62 165.161 39.831 165.468 40.014 165.737 40.171 165.969V165.969L33.431 181.389 42.229 176.018C42.876 175.623 43.338 175.271 43.616 174.961 43.904 174.653 44.035 174.301 44.01 173.903 43.986 173.506 43.804 172.997 43.465 172.379V172.379L43.916 172.104C44.071 172.383 44.277 172.752 44.533 173.21 44.793 173.674 45.043 174.102 45.282 174.494V174.494C45.51 174.868 45.747 175.237 45.993 175.601 46.238 175.965 46.441 176.266 46.601 176.503ZM54.116 185.134V185.134L53.719 185.482C53.323 185.051 52.985 184.761 52.702 184.61 52.415 184.464 52.122 184.452 51.822 184.574 51.526 184.7 51.131 184.981 50.636 185.414V185.414L40.787 194.051C40.313 194.467 39.988 194.818 39.814 195.103 39.644 195.393 39.618 195.686 39.735 195.981 39.853 196.276 40.091 196.654 40.452 197.116V197.116L40.055 197.464C39.799 197.123 39.466 196.707 39.056 196.219 38.636 195.73 38.204 195.233 37.762 194.728V194.728C37.275 194.174 36.817 193.656 36.387 193.176 35.952 192.7 35.588 192.32 35.296 192.038V192.038L35.693 191.689C36.113 192.117 36.463 192.411 36.745 192.571 37.022 192.725 37.311 192.732 37.612 192.592 37.918 192.457 38.308 192.181 38.783 191.765V191.765L48.632 183.128C49.126 182.694 49.456 182.339 49.62 182.063 49.789 181.791 49.815 181.499 49.699 181.185 49.582 180.88 49.336 180.504 48.96 180.056V180.056L49.358 179.707C49.615 180.021 49.949 180.427 50.359 180.924 50.769 181.422 51.217 181.948 51.703 182.503V182.503C52.146 183.008 52.587 183.496 53.027 183.968 53.463 184.434 53.826 184.823 54.116 185.134ZM64.397 193.335V193.335C65.744 194.417 66.691 195.664 67.237 197.075 67.788 198.49 67.898 199.976 67.566 201.535 67.244 203.092 66.448 204.66 65.179 206.24V206.24C63.942 207.779 62.574 208.892 61.075 209.58 59.566 210.269 58.039 210.525 56.493 210.349 54.946 210.162 53.512 209.539 52.191 208.477V208.477C50.833 207.386 49.884 206.138 49.343 204.731 48.803 203.324 48.695 201.84 49.022 200.278 49.357 198.714 50.154 197.15 51.411 195.586V195.586C52.647 194.047 54.02 192.933 55.529 192.244 57.038 191.565 58.561 191.309 60.097 191.477 61.633 191.646 63.066 192.265 64.397 193.335ZM64.02 193.646V193.646C63.165 192.959 62.174 192.669 61.047 192.778 59.915 192.892 58.743 193.353 57.531 194.161 56.319 194.969 55.139 196.087 53.99 197.517V197.517C52.82 198.973 51.994 200.394 51.511 201.779 51.028 203.165 50.881 204.415 51.068 205.529 51.265 206.642 51.768 207.523 52.576 208.173V208.173C53.425 208.855 54.411 209.141 55.534 209.028 56.656 208.915 57.83 208.452 59.055 207.637 60.286 206.827 61.47 205.715 62.606 204.301V204.301C63.784 202.835 64.607 201.408 65.076 200.019 65.549 198.634 65.692 197.39 65.506 196.285 65.323 195.175 64.828 194.295 64.02 193.646ZM89.487 208.277V208.277L89.256 208.752C88.704 208.52 88.255 208.416 87.911 208.441 87.563 208.471 87.258 208.644 86.993 208.959 86.738 209.271 86.452 209.752 86.135 210.404V210.404L79.38 224.279C79.249 224.215 79.12 224.152 78.995 224.091 78.869 224.03 78.735 223.965 78.592 223.895V223.895L75.642 204.353 70.092 215.755C69.769 216.418 69.564 216.961 69.476 217.384 69.391 217.801 69.468 218.168 69.706 218.483 69.947 218.793 70.382 219.13 71.01 219.495V219.495L70.779 219.97C70.489 219.792 70.113 219.583 69.653 219.344 69.19 219.111 68.752 218.894 68.34 218.694V218.694C67.945 218.502 67.549 218.313 67.152 218.127 66.746 217.944 66.41 217.806 66.145 217.714V217.714L66.376 217.239C66.919 217.444 67.364 217.539 67.712 217.523 68.054 217.505 68.358 217.335 68.625 217.014 68.898 216.696 69.189 216.221 69.497 215.587V215.587L74.978 204.329C75.266 203.738 75.429 203.281 75.467 202.96 75.511 202.641 75.425 202.363 75.208 202.124 74.983 201.889 74.613 201.639 74.099 201.374V201.374L74.33 200.898C74.576 201.033 74.894 201.206 75.286 201.419 75.671 201.629 76.061 201.83 76.456 202.022V202.022C76.802 202.19 77.147 202.347 77.491 202.492 77.834 202.637 78.134 202.765 78.391 202.875V202.875L81.033 219.495 85.545 210.227C85.876 209.546 86.075 209 86.142 208.589 86.218 208.175 86.139 207.807 85.903 207.486 85.668 207.164 85.241 206.834 84.622 206.496V206.496L84.853 206.021C85.134 206.173 85.507 206.372 85.97 206.62 86.439 206.871 86.88 207.096 87.292 207.297V207.297C87.687 207.489 88.086 207.672 88.489 207.846 88.892 208.02 89.225 208.164 89.487 208.277ZM109.647 212.905V212.905L109.569 213.428C108.975 213.353 108.519 213.349 108.2 213.416 107.874 213.489 107.635 213.668 107.485 213.955 107.342 214.243 107.222 214.712 107.125 215.363V215.363L105.185 228.429C105.097 229.02 105.077 229.471 105.125 229.78 105.18 230.091 105.342 230.313 105.611 230.447 105.885 230.589 106.292 230.7 106.831 230.78V230.78L108.537 231.033C109.543 231.182 110.37 231.113 111.017 230.827 111.664 230.54 112.203 230.035 112.633 229.313 113.061 228.597 113.433 227.658 113.746 226.495V226.495L114.348 226.584C114.213 227.129 114.079 227.855 113.944 228.762V228.762C113.892 229.11 113.83 229.622 113.756 230.296 113.683 230.971 113.629 231.671 113.595 232.399V232.399C112.706 232.233 111.707 232.061 110.598 231.883 109.481 231.711 108.489 231.56 107.622 231.431V231.431C107.082 231.351 106.363 231.244 105.462 231.11 104.568 230.978 103.611 230.839 102.591 230.694 101.57 230.556 100.61 230.437 99.711 230.337V230.337L99.789 229.814C100.385 229.869 100.843 229.867 101.161 229.807 101.472 229.745 101.697 229.564 101.836 229.262 101.982 228.961 102.101 228.498 102.193 227.874V227.874L104.117 214.916C104.214 214.266 104.235 213.782 104.182 213.465 104.135 213.149 103.965 212.908 103.674 212.744 103.388 212.588 102.957 212.46 102.38 212.361V212.361L102.458 211.838C102.857 211.911 103.374 212.004 104.009 212.119 104.643 212.233 105.326 212.344 106.055 212.453V212.453C106.719 212.551 107.378 212.639 108.032 212.716 108.692 212.794 109.23 212.857 109.647 212.905ZM127.784 213.867V213.867L127.789 214.395C127.204 214.414 126.763 214.481 126.465 214.597 126.167 214.719 125.966 214.934 125.862 215.24 125.766 215.547 125.72 216.029 125.726 216.687V216.687L125.846 229.786C125.851 230.417 125.906 230.892 126.008 231.21 126.118 231.528 126.322 231.739 126.622 231.843 126.922 231.946 127.365 232.012 127.95 232.04V232.04L127.955 232.568C127.529 232.539 126.997 232.52 126.359 232.513 125.714 232.512 125.056 232.515 124.385 232.521V232.521C123.648 232.528 122.956 232.537 122.312 232.55 121.667 232.569 121.143 232.597 120.737 232.634V232.634L120.733 232.106C121.33 232.067 121.782 231.993 122.086 231.884 122.385 231.775 122.579 231.561 122.669 231.241 122.766 230.921 122.811 230.445 122.805 229.814V229.814L122.686 216.715C122.68 216.057 122.625 215.576 122.523 215.271 122.427 214.966 122.223 214.755 121.909 214.638 121.602 214.528 121.156 214.469 120.572 214.461V214.461L120.567 213.933C120.972 213.943 121.497 213.954 122.142 213.968 122.787 213.982 123.478 213.986 124.216 213.979V213.979C124.887 213.973 125.545 213.957 126.189 213.931 126.827 213.906 127.359 213.884 127.784 213.867ZM140.844 211.503V211.503C141.989 211.302 142.962 211.308 143.761 211.519 144.554 211.731 145.278 212.012 145.933 212.363V212.363C146.326 212.564 146.596 212.547 146.744 212.312 146.886 212.085 146.928 211.592 146.87 210.833V210.833L147.469 210.728C147.55 211.389 147.663 212.185 147.806 213.118 147.949 214.051 148.155 215.29 148.426 216.835V216.835L147.827 216.94C147.575 216.195 147.351 215.59 147.155 215.125 146.952 214.661 146.732 214.271 146.495 213.955 146.251 213.64 145.942 213.343 145.57 213.064V213.064C144.957 212.53 144.263 212.19 143.488 212.042 142.712 211.888 141.915 211.882 141.097 212.025V212.025C140.213 212.18 139.47 212.539 138.867 213.103 138.269 213.66 137.813 214.388 137.498 215.286 137.182 216.178 137 217.202 136.952 218.357 136.898 219.513 136.986 220.75 137.217 222.066V222.066C137.454 223.421 137.799 224.625 138.254 225.679 138.708 226.733 139.25 227.613 139.879 228.32 140.516 229.025 141.221 229.529 141.996 229.832 142.776 230.127 143.599 230.199 144.463 230.048V230.048C145.176 229.923 145.888 229.653 146.598 229.239 147.314 228.817 147.846 228.272 148.195 227.604V227.604C148.587 226.995 148.819 226.351 148.889 225.671 148.959 224.99 148.953 224.074 148.873 222.92V222.92L149.472 222.816C149.752 224.413 149.987 225.701 150.179 226.68 150.37 227.658 150.541 228.482 150.692 229.15V229.15L150.093 229.255C149.89 228.521 149.69 228.074 149.494 227.913 149.297 227.751 149.03 227.825 148.692 228.134V228.134C148.13 228.698 147.518 229.21 146.856 229.67 146.195 230.136 145.299 230.468 144.166 230.666V230.666C142.451 230.967 140.887 230.856 139.473 230.334 138.059 229.812 136.873 228.913 135.914 227.637 134.961 226.353 134.311 224.723 133.965 222.746V222.746C133.625 220.801 133.694 219.035 134.172 217.447 134.657 215.864 135.47 214.551 136.61 213.508 137.75 212.466 139.161 211.797 140.844 211.503ZM159.784 205.453V205.453C161.378 204.787 162.926 204.55 164.426 204.745 165.932 204.936 167.291 205.55 168.501 206.585 169.716 207.612 170.714 209.06 171.495 210.931V210.931C172.257 212.752 172.581 214.485 172.47 216.131 172.355 217.785 171.85 219.25 170.956 220.524 170.054 221.794 168.821 222.756 167.257 223.41V223.41C165.651 224.081 164.1 224.319 162.606 224.122 161.112 223.925 159.757 223.31 158.54 222.278 157.327 221.236 156.333 219.789 155.559 217.937V217.937C154.798 216.116 154.475 214.378 154.59 212.724 154.714 211.073 155.216 209.613 156.098 208.344 156.979 207.075 158.208 206.112 159.784 205.453ZM159.877 205.933V205.933C158.865 206.356 158.137 207.088 157.694 208.131 157.254 209.179 157.099 210.429 157.23 211.88 157.361 213.33 157.78 214.902 158.487 216.594V216.594C159.208 218.318 160.061 219.722 161.048 220.808 162.035 221.894 163.063 222.62 164.131 222.988 165.203 223.346 166.217 223.326 167.174 222.926V222.926C168.179 222.505 168.901 221.775 169.338 220.736 169.775 219.696 169.928 218.443 169.798 216.978 169.674 215.509 169.263 213.938 168.563 212.264V212.264C167.838 210.529 166.977 209.124 165.98 208.049 164.99 206.972 163.965 206.252 162.905 205.888 161.843 205.518 160.833 205.533 159.877 205.933ZM171.456 200.787L171.15 200.356C171.487 200.132 171.924 199.84 172.461 199.482 172.997 199.124 173.522 198.761 174.036 198.395V198.395C174.723 197.904 175.375 197.427 175.991 196.963 176.601 196.503 177.036 196.18 177.296 195.995V195.995C179.114 194.698 180.723 194.076 182.125 194.129 183.522 194.177 184.615 194.752 185.402 195.856V195.856C185.723 196.305 185.969 196.839 186.142 197.459 186.315 198.079 186.332 198.761 186.193 199.505 186.051 200.243 185.695 201.02 185.125 201.835 184.564 202.651 183.695 203.48 182.515 204.322V204.322L180.454 205.792 180.141 205.354 181.991 204.034C182.949 203.351 183.571 202.666 183.857 201.98 184.134 201.293 184.171 200.617 183.967 199.954 183.759 199.286 183.422 198.624 182.955 197.97V197.97C182.144 196.834 181.273 196.128 180.343 195.854 179.412 195.579 178.343 195.872 177.137 196.733V196.733C176.52 197.173 176.201 197.584 176.18 197.967 176.165 198.345 176.423 198.908 176.956 199.655V199.655L184.565 210.317C184.932 210.831 185.248 211.189 185.515 211.391 185.786 211.589 186.075 211.644 186.38 211.557 186.685 211.47 187.086 211.27 187.581 210.957V210.957L187.888 211.387C187.522 211.607 187.076 211.897 186.549 212.257 186.02 212.626 185.483 213.006 184.937 213.396V213.396C184.336 213.824 183.775 214.228 183.254 214.608 182.737 214.993 182.324 215.317 182.013 215.58V215.58L181.706 215.15C182.174 214.775 182.501 214.456 182.688 214.192 182.87 213.932 182.906 213.645 182.796 213.331 182.692 213.013 182.457 212.597 182.09 212.084V212.084L174.481 201.421C174.099 200.885 173.778 200.522 173.519 200.331 173.266 200.136 172.978 200.081 172.654 200.165 172.339 200.25 171.94 200.458 171.456 200.787ZM180.543 205.729L180.228 205.39C180.982 204.901 181.595 204.513 182.067 204.225 182.537 203.946 182.931 203.714 183.248 203.529 183.574 203.345 183.882 203.183 184.173 203.041V203.041C185.35 202.413 186.339 202.14 187.14 202.221 187.937 202.298 188.747 202.712 189.57 203.464V203.464L191.675 205.281C192.244 205.805 192.696 206.14 193.029 206.286 193.366 206.438 193.683 206.407 193.98 206.195V206.195C194.201 206.013 194.345 205.808 194.412 205.581 194.469 205.352 194.509 205.071 194.531 204.736V204.736L195 204.757C194.986 205.436 194.88 206.014 194.681 206.491 194.483 206.967 194.08 207.422 193.474 207.854V207.854C192.858 208.294 192.217 208.506 191.553 208.491 190.887 208.484 190.137 208.097 189.303 207.328V207.328L187.338 205.485C186.773 204.957 186.248 204.524 185.761 204.185 185.284 203.848 184.815 203.648 184.354 203.585 183.891 203.532 183.394 203.694 182.864 204.073V204.073ZM196.077 178.79V178.79C196.509 179.3 196.943 179.78 197.378 180.229 197.813 180.678 198.154 181.02 198.4 181.253V181.253C198.641 181.481 198.877 181.691 199.107 181.883 199.334 182.079 199.524 182.236 199.677 182.354V182.354L199.259 182.795C198.361 182.109 197.587 181.636 196.936 181.376 196.29 181.112 195.694 181.069 195.149 181.248 194.608 181.422 194.027 181.837 193.405 182.493V182.493L192.156 183.81C191.768 184.22 191.507 184.563 191.373 184.839 191.244 185.12 191.247 185.397 191.381 185.671 191.525 185.944 191.821 186.294 192.269 186.719V186.719L201.935 195.882C202.369 196.294 202.728 196.567 203.014 196.7 203.304 196.829 203.584 196.819 203.852 196.671 204.126 196.527 204.457 196.25 204.846 195.84V195.84L206.026 194.596C206.716 193.868 207.149 193.179 207.324 192.53 207.5 191.891 207.433 191.209 207.122 190.484 206.806 189.763 206.25 188.916 205.453 187.94V187.94L205.872 187.499C206.206 187.89 206.675 188.371 207.278 188.942V188.942C207.534 189.185 207.912 189.525 208.412 189.963 208.918 190.405 209.451 190.842 210.013 191.274V191.274C209.367 191.907 208.653 192.627 207.87 193.432 207.088 194.248 206.395 194.974 205.792 195.61V195.61C205.417 196.006 204.916 196.534 204.29 197.195 203.668 197.851 203.005 198.555 202.301 199.307 201.602 200.064 200.953 200.781 200.356 201.46V201.46L199.972 201.097C200.36 200.64 200.62 200.264 200.753 199.969 200.882 199.678 200.862 199.39 200.695 199.103 200.532 198.811 200.221 198.448 199.763 198.014V198.014L190.257 189.001C189.779 188.548 189.395 188.253 189.105 188.115 188.819 187.972 188.525 187.973 188.224 188.117 187.931 188.261 187.579 188.541 187.167 188.956V188.956L186.784 188.593C187.415 187.946 188.093 187.256 188.816 186.522 189.539 185.788 190.212 185.093 190.833 184.437 191.46 183.777 191.961 183.248 192.335 182.853V182.853C192.893 182.265 193.522 181.592 194.221 180.835 194.925 180.083 195.544 179.401 196.077 178.79ZM196.322 191.66L199.614 188.187C199.614 188.187 199.677 188.247 199.802 188.366 199.932 188.489 199.997 188.551 199.997 188.551V188.551L196.705 192.024C196.705 192.024 196.64 191.962 196.51 191.838 196.384 191.719 196.322 191.66 196.322 191.66ZM197.192 185.671L197.61 185.23C198.288 185.973 198.822 186.526 199.213 186.887 199.603 187.238 199.957 187.565 200.275 187.867V187.867C200.598 188.173 200.955 188.502 201.345 188.854 201.745 189.205 202.334 189.699 203.112 190.337V190.337L202.694 190.778C202.206 190.443 201.72 190.143 201.239 189.879 200.752 189.61 200.262 189.489 199.769 189.516 199.277 189.553 198.77 189.846 198.248 190.396V190.396L197.865 190.032C198.386 189.482 198.621 188.945 198.569 188.42 198.523 187.899 198.345 187.406 198.036 186.939 197.728 186.463 197.446 186.04 197.192 185.671ZM199.3 175.27L198.85 174.993C199.074 174.655 199.363 174.217 199.718 173.678 200.073 173.14 200.416 172.601 200.747 172.064V172.064C201.19 171.345 201.604 170.652 201.991 169.985 202.375 169.324 202.651 168.857 202.818 168.586V168.586C203.988 166.684 205.229 165.485 206.541 164.989 207.848 164.49 209.078 164.596 210.233 165.306V165.306C210.702 165.596 211.137 165.992 211.537 166.496 211.937 167 212.218 167.621 212.38 168.361 212.536 169.096 212.509 169.95 212.301 170.923 212.102 171.893 211.623 172.995 210.863 174.228V174.228L209.536 176.385 209.078 176.103 210.269 174.167C210.886 173.165 211.192 172.293 211.189 171.55 211.177 170.808 210.949 170.172 210.503 169.64 210.052 169.105 209.484 168.627 208.799 168.205V168.205C207.611 167.474 206.534 167.162 205.57 167.271 204.606 167.38 203.735 168.065 202.958 169.328V169.328C202.561 169.973 202.427 170.476 202.556 170.836 202.689 171.191 203.146 171.609 203.927 172.09V172.09L215.083 178.956C215.62 179.287 216.051 179.494 216.375 179.576 216.702 179.653 216.99 179.591 217.237 179.392 217.484 179.193 217.775 178.854 218.11 178.373V178.373L218.56 178.65C218.309 178.995 218.011 179.435 217.665 179.972 217.321 180.517 216.973 181.076 216.622 181.648V181.648C216.235 182.276 215.875 182.866 215.543 183.419 215.217 183.975 214.961 184.434 214.777 184.797V184.797L214.327 184.52C214.612 183.993 214.79 183.571 214.859 183.255 214.926 182.945 214.847 182.666 214.624 182.42 214.405 182.168 214.026 181.876 213.489 181.545V181.545L202.333 174.679C201.773 174.334 201.336 174.124 201.024 174.049 200.715 173.968 200.427 174.029 200.162 174.232 199.905 174.433 199.618 174.779 199.3 175.27ZM209.594 176.291L209.172 176.102C209.676 175.359 210.09 174.763 210.413 174.314 210.738 173.874 211.011 173.507 211.23 173.214 211.46 172.918 211.68 172.648 211.893 172.404V172.404C212.733 171.368 213.538 170.732 214.308 170.496 215.072 170.256 215.979 170.323 217.03 170.696V170.696L219.675 171.552C220.404 171.813 220.95 171.946 221.314 171.951 221.683 171.96 221.963 171.809 222.155 171.498V171.498C222.288 171.244 222.341 170.999 222.314 170.764 222.278 170.531 222.205 170.256 222.096 169.939V169.939L222.535 169.777C222.787 170.408 222.914 170.981 222.916 171.498 222.918 172.014 222.724 172.589 222.334 173.223V173.223C221.937 173.868 221.429 174.313 220.811 174.557 220.194 174.809 219.353 174.744 218.286 174.36V174.36L215.759 173.426C215.034 173.159 214.381 172.964 213.801 172.841 213.23 172.716 212.72 172.714 212.271 172.836 211.824 172.966 211.429 173.309 211.088 173.863V173.863ZM211.169 150.766V150.766L228.957 150.299C229.656 150.281 230.169 150.158 230.498 149.93 230.821 149.699 231.039 149.456 231.151 149.2V149.2L231.649 149.378C231.474 149.768 231.284 150.229 231.079 150.763 230.88 151.298 230.683 151.838 230.488 152.383V152.383C230.236 153.084 230.008 153.732 229.801 154.329 229.6 154.928 229.45 155.417 229.349 155.798V155.798L228.851 155.619C229.123 154.764 229.17 154.177 228.995 153.86 228.819 153.543 228.246 153.398 227.276 153.424V153.424L213.585 153.57 213.285 153.017 222.598 161.014C223.451 161.764 224.152 162.231 224.701 162.413 225.259 162.592 225.717 162.534 226.077 162.239 226.428 161.949 226.739 161.456 227.009 160.762V160.762L227.506 160.94C227.295 161.43 227.093 161.926 226.899 162.428 226.711 162.932 226.537 163.407 226.378 163.851V163.851C226.235 164.251 226.111 164.606 226.008 164.915 225.91 165.226 225.832 165.512 225.774 165.774V165.774L225.277 165.595C225.321 165.216 225.24 164.792 225.034 164.322 224.826 163.859 224.381 163.326 223.701 162.722V162.722L210.866 151.611C210.913 151.479 210.964 151.338 211.018 151.188 211.071 151.038 211.122 150.897 211.169 150.766ZM220.086 159.097L222.652 151.937 223.15 152.115 220.493 159.529ZM8.415 118.775C8.415 114.806 11.632 111.589 15.601 111.589 19.57 111.589 22.787 114.806 22.787 118.775 22.787 122.744 19.57 125.961 15.601 125.961 11.632 125.961 8.415 122.744 8.415 118.775ZM221.778 118.775C221.778 114.806 224.995 111.589 228.964 111.589 232.932 111.589 236.15 114.806 236.15 118.775 236.15 122.744 232.932 125.961 228.964 125.961 224.995 125.961 221.778 122.744 221.778 118.775Z" fill="#4d331f" data-fill-palette-color="accent"></path></svg></g></svg></g><g></g></svg></g><defs></defs></svg><rect width="308.0411629598004" height="247.2" fill="none" stroke="none" visibility="hidden"></rect></g></svg></g></svg>