<svg xmlns="http://www.w3.org/2000/svg" version="1.1" xmlns:xlink="http://www.w3.org/1999/xlink" xmlns:svgjs="http://svgjs.dev/svgjs" width="128" height="128" viewBox="0 0 128 128"><g transform="matrix(0.8046875,0,0,0.8046875,12.760752631578946,12.760752631578946)"><svg viewBox="0 0 95 95" data-background-color="#ffffff" preserveAspectRatio="xMidYMid meet" height="128" width="128" xmlns="http://www.w3.org/2000/svg" xmlns:xlink="http://www.w3.org/1999/xlink"><g id="tight-bounds" transform="matrix(1,0,0,1,-0.24049999999999727,-0.24049999999999727)"><svg viewBox="0 0 95.481 95.481" height="95.481" width="95.481"><g><svg viewBox="0 0 95.481 95.481" height="95.481" width="95.481"><g><svg viewBox="0 0 95.481 95.481" height="95.481" width="95.481"><g><svg viewBox="0 0 95.481 95.481" height="95.481" width="95.481"><g><svg viewBox="0 0 95.481 95.481" height="95.481" width="95.481"><g><svg viewBox="0 0 95.481 95.481" height="95.481" width="95.481"><g><svg xmlns="http://www.w3.org/2000/svg" xmlns:xlink="http://www.w3.org/1999/xlink" version="1.1" x="0" y="0" viewBox="1 1 70 70" enable-background="new 0 0 72 72" xml:space="preserve" height="95.481" width="95.481" class="icon-icon-0" data-fill-palette-color="accent" id="icon-0"><g fill="#4d331f" data-fill-palette-color="accent"><path fill="#ffffff" d="M49.3 64.3l-10.4-1.4c-0.3 0-0.6-0.4-0.6-0.7V37.9c0-0.4 0.2-0.7 0.6-0.7l10.4-1.4c0.4-0.1 0.7 0.3 0.7 0.7v27.1C50 64 49.7 64.4 49.3 64.3z" data-fill-palette-color="accent"></path><path fill="#ffffff" d="M70.9 25.9l-13.5-12c-0.1-0.1-0.1-0.1-0.1-0.2V4c0-0.1 0-0.2-0.1-0.2l-3.3-2.7C53.8 1 53.7 1 53.6 1L9.8 21c-0.1 0-0.2 0.2-0.2 0.3v6c0 0.1-0.1 0.3-0.2 0.3L7.9 28c-0.1 0-0.2 0.2-0.2 0.3V33c0 0.2 0.2 0.4 0.4 0.3l45.1-15.9c0.2-0.1 0.4 0.1 0.4 0.3l0.2 48.5c0 0.2-0.1 0.3-0.2 0.3l-17 1.8v0L1.3 57.7C1.2 57.7 1 57.8 1 58v2c0 0.1 0.1 0.3 0.2 0.3L36.4 71l0 0L69 67.6c0.1 0 0.2-0.1 0.2-0.3v-2.4V31.7c0-0.2 0.1-0.3 0.3-0.3h1.2c0.2 0 0.3-0.1 0.3-0.3v-5C71 26 71 25.9 70.9 25.9z" data-fill-palette-color="accent"></path><path fill="#ffffff" d="M36.4 27.9L36.4 27.9 36.4 27.9c-0.1-0.4-0.3-0.8-0.6-1-0.7-0.5-1.6-0.3-2.1 0.4l-7.7 12.4c0 0.1-0.1 0.1-0.2 0.1l-18.6 2c-0.2 0-0.4-0.3-0.2-0.5l3-4.3c0.5-0.7 0.4-1.8-0.2-2.3-0.6-0.6-1.6-0.5-2.1 0.3l-5.6 7.8c-0.4 0.5-0.4 1.2-0.1 1.8 0.3 0.5 0.8 0.9 1.3 0.9 0 0 0.1 0 0.1 0l7.7-0.8c0.3 0 0.5 0.2 0.5 0.5v11.3c0 0.5 0.3 1 0.8 1l22.9 4.5c0.5 0.1 1-0.4 1-1V28.6C36.5 28.4 36.5 28.1 36.4 27.9z" data-fill-palette-color="accent"></path></g></svg></g></svg></g></svg></g></svg></g></svg></g><g></g></svg></g><defs></defs></svg><rect width="95.481" height="95.481" fill="none" stroke="none" visibility="hidden"></rect></g></svg></g></svg>