<?xml version="1.0" encoding="utf-8"?>
<!-- Generator: Adobe Illustrator 22.0.0, SVG Export Plug-In . SVG Version: 6.00 Build 0)  -->
<svg version="1.1" id="Layer_1" xmlns="http://www.w3.org/2000/svg" xmlns:xlink="http://www.w3.org/1999/xlink" x="0px" y="0px"
	 viewBox="0 0 700 700" style="enable-background:new 0 0 700 700;" xml:space="preserve">
<path d="M350,6.6C198.9,6.6,76.6,129,76.6,280S198.9,553.4,350,553.4S623.4,431.1,623.4,280S501,6.6,350,6.6z M352,143.3
	c35.4,0,64.2,28.8,64.2,64.2s-28.8,64.2-64.2,64.2s-64.2-28.8-64.2-64.2S316.5,143.3,352,143.3z M459.3,416.7H240.8v-65.8
	c0-30.3,24.5-54.8,54.8-54.8h108.7c30.3,0,54.8,24.6,54.9,54.9L459.3,416.7z"/>
</svg>
